<svg width="175" height="206" viewBox="0 0 175 206" fill="none" xmlns="http://www.w3.org/2000/svg">
<mask id="mask0_732_21366" style="mask-type:luminance" maskUnits="userSpaceOnUse" x="0" y="0" width="205" height="206">
<path d="M205 0.875H0V205.875H205V0.875Z" fill="white"/>
</mask>
<g mask="url(#mask0_732_21366)">
<g opacity="0.3">
<path d="M102.981 91.6409C122.335 91.6409 138.025 103.857 138.025 118.927C138.025 133.997 122.335 146.213 102.981 146.213C83.6263 146.213 67.9362 133.997 67.9362 118.927C67.9362 103.857 83.6263 91.6409 102.981 91.6409Z" fill="#7F6182"/>
</g>
<path d="M113.993 118.564L110.871 119.47" stroke="#A590A7" stroke-width="10.25" stroke-linecap="round"/>
<path d="M99.3419 130.552L99.2493 122.551" stroke="#A590A7" stroke-width="8.54167" stroke-linecap="round"/>
<path d="M77.4563 84.3614C73.8302 85.1603 69.8571 85.0001 63.9712 84.3009C60.1262 83.8175 60.1952 86.8039 60.4464 89.4304C60.7725 92.9871 61.5317 96.335 63.641 99.1653C66.2473 102.661 68.5091 103.9 71.449 105.163C74.6831 106.553 78.3355 106.767 78.1991 106.597C78.1117 106.488 77.5419 86.2109 77.4563 84.3614Z" fill="#7F6182"/>
<path d="M128.245 105.616C129.686 105.922 133.571 104.622 135.922 101.921C138.266 99.1855 140.299 93.9233 140.505 86.8871C140.69 80.5359 139.285 79.26 137.098 80.8805C135.402 82.0265 132.806 83.3743 129.94 84.0818L129.538 89.193" fill="#7F6182"/>
<mask id="mask1_732_21366" style="mask-type:alpha" maskUnits="userSpaceOnUse" x="74" y="59" width="64" height="75">
<mask id="mask2_732_21366" style="mask-type:luminance" maskUnits="userSpaceOnUse" x="-8" y="-8" width="223" height="223">
<path d="M10.6967 -7.6521L214.904 10.3623L196.889 214.569L-7.31776 196.555L10.6967 -7.6521Z" fill="white"/>
</mask>
<g mask="url(#mask2_732_21366)">
<path d="M107.044 64.2671C111.021 64.6211 111.833 63.6816 115.931 63.1708C118.664 62.7939 122.125 62.5885 125.484 63.7188C128.493 64.7358 131.784 67.1285 133.72 69.7574C134.996 71.4909 136.018 73.5981 136.59 75.4721C137.35 77.9653 137.172 80.4312 136.938 81.9573L134.838 102.853C133.624 128.206 111.883 134.062 102.037 133.844C92.2147 133.119 73.1183 124.821 74.3332 99.468L76.734 73.6918C77.9253 64.9527 95.1414 63.0476 107.044 64.2671ZM103.649 62.3466C106.381 63.6792 108.899 64.8591 112.745 65.3774C122.556 66.6999 138.272 74.1193 137.25 81.6986L134.917 102.788C133.702 128.142 111.883 134.062 102.037 133.844C92.2147 133.119 71.7226 124.576 74.3265 99.5392L76.812 73.6272C77.0168 71.7684 78.3344 68.8117 80.2994 66.2264C81.5997 64.5159 83.8028 62.7469 85.8663 61.609C88.1113 60.3708 91.0675 59.2017 94.2087 59.5178C98.0457 59.8547 101.071 61.0912 103.649 62.3466Z" fill="#58CC02"/>
<path d="M103.649 62.3466C106.381 63.6792 108.899 64.8591 112.745 65.3774C122.556 66.6999 138.272 74.1193 137.25 81.6986L134.917 102.788C133.702 128.142 111.883 134.062 102.037 133.844C92.2147 133.119 71.7226 124.576 74.3265 99.5392L76.812 73.6272C77.0168 71.7684 78.3344 68.8117 80.2994 66.2264C81.5997 64.5159 83.8028 62.7469 85.8663 61.609C88.1113 60.3708 91.0675 59.2017 94.2087 59.5178C98.0457 59.8547 101.071 61.0912 103.649 62.3466Z" fill="#58CC02"/>
</g>
</mask>
<g mask="url(#mask1_732_21366)">
<path d="M172.637 13.6646V168.553H36.919V13.6646H172.637Z" fill="#7F6182"/>
<path d="M122.298 66.9539C120.957 66.9539 117.49 80.3715 108.617 80.3715C99.6435 80.3715 94.7982 68.0487 91.9893 68.2508C89.4918 68.4162 90.0724 71.6519 90.2902 73.0164C89.3623 72.2658 88.1015 71.2902 87.1238 71.1936C86.1462 71.0969 85.6344 73.1007 85.7309 74.1746C85.7741 74.6173 85.9696 74.925 86.4577 75.9051C85.6068 76.7771 81.743 78.5337 81.6291 85.4796C81.4777 93.1162 83.6374 97.7348 86.6914 100.406C89.4909 102.854 93.0417 103.667 96.2532 103.667C101.258 103.667 104.447 100.375 105.126 98.5966L112.521 98.4638C113.162 100.266 115.955 103.738 120.977 103.738C125.591 103.738 128.338 100.344 129.869 95.964C131.094 92.4561 131.54 88.3152 131.54 84.7773C131.54 78.4127 128.262 75.1345 127.411 74.2533C127.498 74.0627 127.71 73.9951 127.71 72.5087C127.71 70.6508 126.737 69.3298 126.159 69.3298C125.582 69.3298 124.855 70.318 124.017 71.3423C124.017 68.8173 123.64 66.9539 122.298 66.9539Z" fill="#A179A5"/>
</g>
<path d="M106.064 113.43C105.994 112.675 100.576 112.158 98.5121 112.348C96.5909 112.526 99.4802 115.572 102.552 115.288C105.469 115.018 106.11 113.929 106.064 113.43ZM111.82 112.897C111.75 112.142 116.981 110.64 119.045 110.449C120.966 110.272 118.685 113.796 115.613 114.08C112.695 114.35 111.866 113.397 111.82 112.897ZM106.722 116.413C105.737 116.334 105.308 116.636 105.358 117.186C105.443 118.102 107.824 118.365 109.472 118.212C111.121 118.06 113.245 117.103 113.186 116.462C113.138 115.949 112.675 115.823 112.379 115.89C110.81 116.247 107.602 116.483 106.722 116.413Z" fill="#B494B7"/>
<path d="M87.9059 88.9779C90.3317 86.4987 93.4237 85.2279 96.9385 86.5265C100.232 87.7269 100.817 90.6461 101.831 93.9959" stroke="#7F6182" stroke-width="1.38185" stroke-linecap="round" stroke-linejoin="round"/>
<path d="M127.843 89.5044C125.503 86.4638 122.524 85.0498 119.711 86.2501C116.794 87.495 115.418 90.1075 114.581 94.2208" stroke="#7F6182" stroke-width="1.38185" stroke-linecap="round" stroke-linejoin="round"/>
<mask id="mask3_732_21366" style="mask-type:alpha" maskUnits="userSpaceOnUse" x="84" y="96" width="30" height="18">
<mask id="mask4_732_21366" style="mask-type:luminance" maskUnits="userSpaceOnUse" x="-14" y="-16" width="234" height="234">
<path d="M5.2755 -15.7432L219.693 3.17196L200.778 217.59L-13.6396 198.675L5.2755 -15.7432Z" fill="white"/>
</mask>
<g mask="url(#mask4_732_21366)">
<path d="M91.3455 103.29C91.7612 98.5171 90.4842 97.0334 87.9529 96.4869C84.2577 95.9019 84.6555 99.6542 84.5694 102.137C84.5155 103.691 84.6552 104.306 85.0093 105.25C85.6724 107.016 86.9006 107.997 88.3197 107.988C89.3825 108.007 90.0398 107.589 90.6374 106.584C91.1208 105.771 91.1986 104.975 91.3455 103.29Z" fill="#4B4B4B"/>
<path d="M105.296 108.363C105.321 103.249 106.714 102.193 109.455 102.007C113.385 101.671 113.417 105.123 113.403 107.188C113.393 108.789 113.159 110.201 112.717 111.141C111.819 113.049 110.502 113.375 109.077 113.497C108.008 113.573 106.696 112.92 106.156 112.067C105.664 111.291 105.289 110.032 105.296 108.363Z" fill="#4B4B4B"/>
</g>
</mask>
<g mask="url(#mask3_732_21366)">
<path d="M141.38 37.4624V128.944H6.05153V37.4624H141.38Z" fill="#593B5C"/>
</g>
<path d="M108.763 95.3429C109.029 95.3429 109.289 95.3343 109.541 95.3261C109.59 95.3245 109.637 95.3229 109.685 95.3214C109.982 95.3121 110.265 95.3056 110.535 95.3162C111.074 95.3376 111.546 95.4276 111.939 95.6933C112.33 95.9579 112.654 96.4049 112.881 97.164C113.108 97.9246 113.235 98.9926 113.235 100.49C113.235 103.485 112.726 105.377 111.917 106.518C111.112 107.654 110.002 108.057 108.763 108.057C107.524 108.057 106.412 107.653 105.605 106.518C104.794 105.377 104.283 103.485 104.283 100.49C104.283 98.9927 104.411 97.9246 104.638 97.1641C104.866 96.405 105.191 95.958 105.583 95.6933C105.977 95.4276 106.45 95.3376 106.99 95.3162C107.259 95.3056 107.543 95.3121 107.84 95.3214C107.888 95.3229 107.936 95.3245 107.984 95.3261C108.236 95.3343 108.497 95.3429 108.763 95.3429Z" fill="#F49000" stroke="#B598B8" stroke-width="0.172731"/>
<path d="M111.752 100.763V100.763C111.749 102.189 111.443 103.489 110.935 104.429C110.426 105.371 109.725 105.936 108.932 105.938C108.029 105.94 107.289 105.385 106.777 104.461C106.264 103.535 105.986 102.249 106.012 100.823C106.032 99.8028 106.16 99.1354 106.352 98.7059C106.542 98.2809 106.793 98.0922 107.068 98.0189C107.349 97.9435 107.668 97.9862 108 98.0534C108.067 98.0671 108.135 98.0819 108.204 98.0968C108.463 98.1531 108.726 98.2101 108.961 98.2101C109.2 98.2101 109.466 98.151 109.725 98.0932C109.788 98.0792 109.85 98.0654 109.912 98.0524C110.236 97.9841 110.543 97.9401 110.81 98.0116C111.069 98.0808 111.303 98.2625 111.475 98.6789C111.649 99.1001 111.755 99.7567 111.752 100.763Z" fill="#B06800" stroke="#B598B8" stroke-width="0.172731"/>
<path d="M114.713 97.1051L114.713 97.1051L114.714 97.1093C114.716 97.1205 114.714 97.146 114.697 97.1908C114.68 97.234 114.652 97.2871 114.612 97.3495C114.531 97.4742 114.408 97.6271 114.25 97.7986C113.935 98.1411 113.49 98.5496 112.998 98.9424C112.507 99.3351 111.972 99.7102 111.476 99.9868C110.977 100.266 110.531 100.437 110.215 100.438L110.215 100.438C109.853 100.439 109.247 100.299 108.532 100.066C107.821 99.8353 107.013 99.5165 106.251 99.1689C105.489 98.8211 104.776 98.4457 104.255 98.1017C103.994 97.9295 103.784 97.7671 103.641 97.6219C103.569 97.5493 103.516 97.483 103.481 97.4239C103.446 97.3643 103.432 97.317 103.432 97.2807C103.432 96.5535 103.94 95.3917 104.899 94.4279C105.855 93.4679 107.248 92.7157 109.006 92.7916L109.007 92.7916C110.444 92.8442 111.817 93.4783 112.86 94.3262C113.905 95.1763 114.604 96.2286 114.713 97.1051Z" fill="#FFC200" stroke="#B598B8" stroke-width="0.172731"/>
<path d="M107.445 95.7752C107.833 95.5082 108.903 95.1259 109.878 95.4979" stroke="#B598B8" stroke-width="2.66784" stroke-linecap="round"/>
</g>
</svg>
