<svg width="175" height="206" viewBox="0 0 175 206" fill="none" xmlns="http://www.w3.org/2000/svg">
<mask id="mask0_732_21572" style="mask-type:luminance" maskUnits="userSpaceOnUse" x="-31" y="0" width="206" height="206">
<path d="M-30.5 0.875H174.5V205.875H-30.5V0.875Z" fill="white"/>
</mask>
<g mask="url(#mask0_732_21572)">
<g opacity="0.3">
<path d="M71.5191 91.6409C52.1646 91.6409 36.4745 103.857 36.4745 118.927C36.4745 133.997 52.1646 146.213 71.5191 146.213C90.8737 146.213 106.564 133.997 106.564 118.927C106.564 103.857 90.8737 91.6409 71.5191 91.6409Z" fill="#7F6182"/>
</g>
<path d="M60.5073 118.564L63.6286 119.47" stroke="#A590A7" stroke-width="10.25" stroke-linecap="round"/>
<path d="M75.1581 130.552L75.2507 122.551" stroke="#A590A7" stroke-width="8.54167" stroke-linecap="round"/>
<path d="M97.0437 84.3613C100.67 85.1602 104.643 84.9999 110.529 84.3008C114.374 83.8173 114.305 86.8038 114.054 89.4303C113.728 92.987 112.968 96.3349 110.859 99.1652C108.253 102.661 105.991 103.9 103.051 105.163C99.8169 106.553 96.1645 106.767 96.3009 106.597C96.3883 106.488 96.9581 86.2108 97.0437 84.3613Z" fill="#7F6182"/>
<path d="M46.255 105.616C44.8137 105.922 40.9287 104.622 38.5778 101.921C36.2336 99.1856 34.201 93.9234 33.9948 86.8872C33.8102 80.536 35.2155 79.2601 37.4016 80.8806C39.0983 82.0267 41.6944 83.3744 44.5597 84.082L44.9621 89.1931" fill="#7F6182"/>
<mask id="mask1_732_21572" style="mask-type:alpha" maskUnits="userSpaceOnUse" x="37" y="59" width="64" height="75">
<mask id="mask2_732_21572" style="mask-type:luminance" maskUnits="userSpaceOnUse" x="-41" y="-8" width="223" height="223">
<path d="M163.803 -7.6521L-40.4035 10.3623L-22.3891 214.569L181.818 196.555L163.803 -7.6521Z" fill="white"/>
</mask>
<g mask="url(#mask2_732_21572)">
<path d="M67.4563 64.2671C63.4793 64.6211 62.667 63.6816 58.5694 63.1708C55.8361 62.7939 52.3748 62.5885 49.0162 63.7188C46.0068 64.7358 42.7156 67.1285 40.7805 69.7574C39.5045 71.4909 38.4818 73.5981 37.9101 75.4721C37.1495 77.9653 37.3284 80.4312 37.5622 81.9573L39.6615 102.853C40.8764 128.206 62.6169 134.062 72.4633 133.844C82.2853 133.119 101.382 124.821 100.167 99.468L97.766 73.6918C96.5747 64.9527 79.3586 63.0476 67.4563 64.2671ZM70.8508 62.3466C68.1187 63.6792 65.6008 64.8591 61.7551 65.3774C51.9439 66.6999 36.228 74.1193 37.2497 81.6986L39.5834 102.788C40.7983 128.142 62.6167 134.062 72.4633 133.844C82.2853 133.119 102.777 124.576 100.174 99.5392L97.688 73.6272C97.4832 71.7684 96.1656 68.8117 94.2006 66.2264C92.9003 64.5159 90.6972 62.7469 88.6337 61.609C86.3887 60.3708 83.4325 59.2017 80.2914 59.5178C76.4543 59.8547 73.429 61.0912 70.8508 62.3466Z" fill="#58CC02"/>
<path d="M70.8508 62.3466C68.1187 63.6792 65.6008 64.8591 61.7551 65.3774C51.9439 66.6999 36.228 74.1193 37.2497 81.6986L39.5834 102.788C40.7983 128.142 62.6167 134.062 72.4633 133.844C82.2853 133.119 102.777 124.576 100.174 99.5392L97.688 73.6272C97.4832 71.7684 96.1656 68.8117 94.2006 66.2264C92.9003 64.5159 90.6972 62.7469 88.6337 61.609C86.3887 60.3708 83.4325 59.2017 80.2914 59.5178C76.4543 59.8547 73.429 61.0912 70.8508 62.3466Z" fill="#58CC02"/>
</g>
</mask>
<g mask="url(#mask1_732_21572)">
<path d="M1.86345 13.6647V168.554H137.581V13.6647H1.86345Z" fill="#7F6182"/>
<path d="M52.2018 66.954C53.5432 66.954 57.0105 80.3716 65.883 80.3716C74.8565 80.3716 79.7019 68.0488 82.5108 68.251C85.0082 68.4164 84.4276 71.6521 84.2098 73.0165C85.1377 72.266 86.3985 71.2903 87.3762 71.1937C88.3538 71.097 88.8656 73.1008 88.7691 74.1747C88.726 74.6174 88.5305 74.9251 88.0423 75.9053C88.8932 76.7772 92.7571 78.5338 92.8709 85.4798C93.0223 93.1163 90.8626 97.7349 87.8086 100.406C85.0092 102.854 81.4583 103.667 78.2468 103.667C73.2418 103.667 70.0529 100.375 69.3742 98.5968L61.9792 98.4639C61.3382 100.266 58.5455 103.738 53.523 103.738C48.909 103.738 46.162 100.345 44.6313 95.9641C43.4056 92.4562 42.9599 88.3154 42.9599 84.7775C42.9599 78.4128 46.2379 75.1347 47.0888 74.2534C47.0019 74.0629 46.7901 73.9952 46.7901 72.5089C46.7901 70.651 47.7633 69.3299 48.3409 69.3299C48.9184 69.3299 49.6448 70.3181 50.4832 71.3424C50.4832 68.8174 50.8605 66.954 52.2018 66.954Z" fill="#A179A5"/>
</g>
<path d="M68.4362 113.43C68.506 112.675 73.9243 112.158 75.9879 112.348C77.9091 112.526 75.0198 115.572 71.9483 115.288C69.0309 115.018 68.39 113.929 68.4362 113.43ZM62.6805 112.897C62.7503 112.142 57.5188 110.64 55.4552 110.449C53.534 110.272 55.8154 113.796 58.8871 114.08C61.8046 114.35 62.6343 113.397 62.6805 112.897ZM67.7776 116.413C68.7631 116.334 69.1924 116.636 69.1415 117.186C69.0568 118.102 66.6761 118.365 65.0277 118.212C63.3793 118.06 61.255 117.103 61.3143 116.462C61.3617 115.949 61.825 115.823 62.1208 115.89C63.6904 116.247 66.898 116.483 67.7776 116.413Z" fill="#B494B7"/>
<path d="M86.5941 88.9781C84.1683 86.4989 81.0763 85.2282 77.5615 86.5268C74.2685 87.7271 73.6829 90.6464 72.6688 93.9961" stroke="#7F6182" stroke-width="1.38185" stroke-linecap="round" stroke-linejoin="round"/>
<path d="M46.6575 89.5045C48.9974 86.464 51.9757 85.0499 54.7888 86.2502C57.7062 87.4951 59.0823 90.1076 59.9189 94.221" stroke="#7F6182" stroke-width="1.38185" stroke-linecap="round" stroke-linejoin="round"/>
<mask id="mask3_732_21572" style="mask-type:alpha" maskUnits="userSpaceOnUse" x="61" y="96" width="29" height="18">
<mask id="mask4_732_21572" style="mask-type:luminance" maskUnits="userSpaceOnUse" x="-46" y="-16" width="235" height="234">
<path d="M169.225 -15.7432L-45.1932 3.17196L-26.2781 217.59L188.14 198.675L169.225 -15.7432Z" fill="white"/>
</mask>
<g mask="url(#mask4_732_21572)">
<path d="M83.1545 103.29C82.7388 98.5172 84.0158 97.0335 86.5471 96.4871C90.2423 95.902 89.8445 99.6543 89.9306 102.137C89.9845 103.691 89.8448 104.306 89.4907 105.25C88.8276 107.016 87.5994 107.997 86.1803 107.989C85.1175 108.007 84.4602 107.589 83.8626 106.584C83.3792 105.771 83.3014 104.975 83.1545 103.29Z" fill="#4B4B4B"/>
<path d="M69.2035 108.363C69.1792 103.249 67.7862 102.193 65.0452 102.007C61.1154 101.671 61.0834 105.123 61.0965 107.188C61.1068 108.789 61.3407 110.201 61.783 111.141C62.6812 113.049 63.9976 113.375 65.4231 113.497C66.4916 113.573 67.8037 112.92 68.3444 112.067C68.8359 111.291 69.2115 110.032 69.2035 108.363Z" fill="#4B4B4B"/>
</g>
</mask>
<g mask="url(#mask3_732_21572)">
<path d="M33.12 37.4624V128.944H168.448V37.4624H33.12Z" fill="#593B5C"/>
</g>
<path d="M65.7372 95.3429C65.4713 95.3429 65.2105 95.3343 64.9585 95.3261C64.9104 95.3245 64.8626 95.3229 64.8151 95.3214C64.5182 95.3121 64.2345 95.3056 63.9651 95.3162C63.4258 95.3376 62.9538 95.4276 62.5611 95.6933C62.1699 95.9579 61.8456 96.4049 61.6189 97.164C61.3919 97.9246 61.2646 98.9926 61.2646 100.49C61.2646 103.485 61.7737 105.377 62.5832 106.518C63.3882 107.654 64.4985 108.057 65.7372 108.057C66.9759 108.057 68.0881 107.653 68.8949 106.518C69.7062 105.377 70.2171 103.485 70.2171 100.49C70.2171 98.9927 70.0894 97.9246 69.8617 97.1641C69.6343 96.405 69.3091 95.958 68.917 95.6933C68.5234 95.4276 68.0504 95.3376 67.5104 95.3162C67.2406 95.3056 66.9567 95.3121 66.6596 95.3214C66.612 95.3229 66.5641 95.3245 66.5159 95.3261C66.2638 95.3343 66.003 95.3429 65.7372 95.3429Z" fill="#F49000" stroke="#B598B8" stroke-width="0.172731"/>
<path d="M62.7476 100.763V100.763C62.7514 102.189 63.0567 103.489 63.5645 104.429C64.0736 105.371 64.7752 105.936 65.5682 105.938C66.4708 105.94 67.2106 105.385 67.723 104.46C68.2357 103.535 68.5135 102.249 68.4883 100.823C68.4684 99.8026 68.3405 99.1353 68.1482 98.7058C67.958 98.2808 67.7068 98.0921 67.4324 98.0188C67.1505 97.9434 66.832 97.9861 66.5005 98.0533C66.433 98.067 66.3646 98.0818 66.2961 98.0967C66.0365 98.1529 65.7736 98.2099 65.5388 98.2099C65.2996 98.2099 65.0342 98.1508 64.775 98.0931C64.7122 98.0791 64.6499 98.0652 64.5883 98.0523C64.2639 97.984 63.9571 97.9399 63.6899 98.0114C63.4311 98.0807 63.1967 98.2624 63.0251 98.6788C62.8515 99.1 62.7445 99.7565 62.7476 100.763Z" fill="#B06800" stroke="#B598B8" stroke-width="0.172731"/>
<path d="M59.7871 97.1051L59.7872 97.1051L59.7864 97.1093C59.7845 97.1205 59.7858 97.146 59.803 97.1908C59.8195 97.234 59.8476 97.2871 59.888 97.3495C59.9685 97.4742 60.0921 97.6271 60.25 97.7986C60.5653 98.1411 61.0102 98.5496 61.5015 98.9424C61.9928 99.3351 62.5281 99.7102 63.0236 99.9868C63.5231 100.266 63.9688 100.437 64.2852 100.438L64.2853 100.438C64.647 100.439 65.253 100.299 65.9676 100.066C66.6787 99.8353 67.4871 99.5165 68.249 99.1689C69.0112 98.8211 69.724 98.4457 70.245 98.1017C70.5059 97.9295 70.7156 97.7671 70.8591 97.6219C70.9309 97.5493 70.9841 97.483 71.0189 97.4239C71.054 97.3643 71.0675 97.317 71.0675 97.2807C71.0675 96.5535 70.5602 95.3917 69.6008 94.4279C68.6452 93.4679 67.2518 92.7157 65.4938 92.7916L65.4932 92.7916C64.0564 92.8442 62.683 93.4783 61.6401 94.3262C60.5945 95.1763 59.8958 96.2286 59.7871 97.1051Z" fill="#FFC200" stroke="#B598B8" stroke-width="0.172731"/>
<path d="M67.0547 95.7753C66.667 95.5083 65.5971 95.126 64.6223 95.498" stroke="#B598B8" stroke-width="2.66784" stroke-linecap="round"/>
</g>
</svg>
