<svg width="42" height="35" viewBox="0 0 42 35" fill="none" xmlns="http://www.w3.org/2000/svg">
<g clip-path="url(#clip0_732_23335)">
<path d="M7.62939e-06 8.99236C7.62939e-06 6.9901 1.66711 5.36694 3.72351 5.36694H12.0641C17.5479 5.36694 21.9934 9.69536 21.9934 15.0347V32.3401C21.9934 33.0075 21.4314 33.5638 20.7519 33.4753C16.871 32.9696 18.2966 30.0177 11.5677 30.0177C9.69611 30.0177 5.88941 30.0177 3.72241 30.0177C1.66591 30.0177 7.62939e-06 28.3945 7.62939e-06 26.3923V8.99236Z" fill="#AFAFAF"/>
<path d="M42 8.99237C42 6.9901 40.3329 5.36694 38.2765 5.36694H29.9359C24.4521 5.36694 20.0066 9.69536 20.0066 15.0347V32.3401C20.0066 33.0075 20.5687 33.5594 21.251 33.4948C26.03 33.0427 23.6008 29.8905 30.4324 29.8905C32.304 29.8905 36.1107 29.8905 38.2777 29.8905C40.3341 29.8905 42 28.2673 42 26.265V8.99237Z" fill="#AFAFAF"/>
<path d="M5.11361 4.40058C5.11361 2.79877 6.44731 1.50024 8.09241 1.50024H14.05C18.437 1.50024 21.9934 4.96298 21.9934 9.23448V26.6365C21.9934 27.1704 21.5409 27.6221 21.0051 27.5082C18.6518 27.0078 18.8645 24.7029 13.5535 24.7029C12.0282 24.7029 9.85191 24.7029 8.09131 24.7029C6.44621 24.7029 5.11361 23.4044 5.11361 21.8026V4.40058Z" fill="#D8D8D8"/>
<path d="M36.8868 4.40058C36.8868 2.79877 35.5532 1.50024 33.9081 1.50024H27.9505C23.5634 1.50024 20.0071 4.96298 20.0071 9.23448V26.6365C20.0071 27.1704 20.4555 27.6184 20.9964 27.5307C23.764 27.0817 23.0516 24.7029 28.4469 24.7029C29.9723 24.7029 32.1486 24.7029 33.9092 24.7029C35.5543 24.7029 36.8868 23.4044 36.8868 21.8026V4.40058Z" fill="#D8D8D8"/>
<path opacity="0.4" fill-rule="evenodd" clip-rule="evenodd" d="M22.4887 3.61886C21.9001 4.16177 21.3968 4.79145 21.0005 5.48688C20.6036 4.79053 20.0995 4.1601 19.5099 3.6167V26.7958C19.7341 26.9644 19.9664 27.1185 20.231 27.2458C20.4134 27.4582 20.6902 27.5805 20.9966 27.5307C21.0203 27.5269 21.0437 27.5229 21.0668 27.5188C21.2724 27.5464 21.4632 27.4914 21.6176 27.3821C21.9581 27.2706 22.2375 27.1234 22.4887 26.9551V3.61886Z" fill="#AFAFAF"/>
</g>
<defs>
<clipPath id="clip0_732_23335">
<rect width="42" height="34" fill="white" transform="matrix(-1 0 0 1 42 0.5)"/>
</clipPath>
</defs>
</svg>
