<svg width="42" height="35" viewBox="0 0 42 35" fill="none" xmlns="http://www.w3.org/2000/svg">
<g clip-path="url(#clip0_732_21517)">
<path d="M42 8.99236C42 6.9901 40.3329 5.36694 38.2765 5.36694H29.9359C24.4521 5.36694 20.0066 9.69536 20.0066 15.0347V32.3401C20.0066 33.0075 20.5686 33.5638 21.2481 33.4753C25.129 32.9696 23.7034 30.0177 30.4323 30.0177C32.3039 30.0177 36.1106 30.0177 38.2776 30.0177C40.3341 30.0177 42 28.3945 42 26.3923V8.99236Z" fill="#AFAFAF"/>
<path d="M0 8.99237C0 6.9901 1.66706 5.36694 3.72348 5.36694H12.0641C17.5479 5.36694 21.9934 9.69536 21.9934 15.0347V32.3401C21.9934 33.0075 21.4313 33.5594 20.749 33.4948C15.97 33.0427 18.3992 29.8905 11.5676 29.8905C9.69604 29.8905 5.88932 29.8905 3.72233 29.8905C1.66591 29.8905 0 28.2673 0 26.265V8.99237Z" fill="#AFAFAF"/>
<path d="M36.8864 4.40058C36.8864 2.79877 35.5527 1.50024 33.9076 1.50024H27.95C23.563 1.50024 20.0066 4.96298 20.0066 9.23448V26.6365C20.0066 27.1704 20.4591 27.6221 20.9949 27.5082C23.3482 27.0078 23.1355 24.7029 28.4465 24.7029C29.9718 24.7029 32.1481 24.7029 33.9087 24.7029C35.5538 24.7029 36.8864 23.4044 36.8864 21.8026V4.40058Z" fill="white"/>
<path d="M5.11316 4.40058C5.11316 2.79877 6.44681 1.50024 8.09194 1.50024H14.0495C18.4366 1.50024 21.9929 4.96298 21.9929 9.23448V26.6365C21.9929 27.1704 21.5445 27.6184 21.0036 27.5307C18.236 27.0817 18.9484 24.7029 13.5531 24.7029C12.0277 24.7029 9.85141 24.7029 8.09083 24.7029C6.44569 24.7029 5.11316 23.4044 5.11316 21.8026V4.40058Z" fill="white"/>
<path opacity="0.4" fill-rule="evenodd" clip-rule="evenodd" d="M19.5113 3.61886C20.0999 4.16177 20.6032 4.79145 20.9995 5.48688C21.3964 4.79053 21.9005 4.1601 22.4901 3.6167V26.7958C22.2659 26.9644 22.0336 27.1185 21.769 27.2458C21.5866 27.4582 21.3098 27.5805 21.0034 27.5307C20.9797 27.5269 20.9563 27.5229 20.9332 27.5188C20.7276 27.5464 20.5368 27.4914 20.3824 27.3821C20.0419 27.2706 19.7625 27.1234 19.5113 26.9551V3.61886Z" fill="#AFAFAF"/>
</g>
<defs>
<clipPath id="clip0_732_21517">
<rect width="42" height="34" fill="white" transform="translate(0 0.5)"/>
</clipPath>
</defs>
</svg>
