<svg width="45" height="50" viewBox="0 0 45 50" fill="none" xmlns="http://www.w3.org/2000/svg">
<path opacity="0.3" d="M42.75 21.1111H2.25C1.00736 21.1111 0 22.106 0 23.3333V41.1111C0 42.3384 1.00736 43.3333 2.25 43.3333H42.75C43.9926 43.3333 45 42.3384 45 41.1111V23.3333C45 22.106 43.9926 21.1111 42.75 21.1111Z" fill="#434343"/>
<path d="M4.66248 22.0759C4.66248 19 7.18708 16.5066 10.3014 16.5066H34.1751C37.2894 16.5066 39.814 19 39.814 22.0759V36.8446C39.814 38.0749 38.8041 39.0723 37.5584 39.0723H6.91803C5.67232 39.0723 4.66248 38.0749 4.66248 36.8446V22.0759Z" fill="#B37183"/>
<path d="M3.4436 14.0153C3.4436 10.9395 5.96824 8.44604 9.08253 8.44604H35.5853C38.6996 8.44604 41.2243 10.9395 41.2243 14.0153V30.584H3.4436V14.0153Z" fill="#6F95CD"/>
<path d="M43.2667 23.762H1.74915V30.1666H43.2667V23.762Z" fill="#C98E9E"/>
<path d="M37.6992 14.1538H42.141C42.7639 14.1538 43.2688 14.6525 43.2688 15.2676V25.4316H37.6992V14.1538Z" fill="#C98E9E"/>
<path d="M1.74915 15.2676C1.74915 14.6525 2.25407 14.1538 2.87692 14.1538H6.47282C7.09567 14.1538 7.60063 14.6525 7.60063 15.2676V24.3178C7.60063 24.9329 7.09567 25.4316 6.47282 25.4316H2.87692C2.25407 25.4316 1.74915 24.9329 1.74915 24.3178V15.2676Z" fill="#C98E9E"/>
<path d="M3.4436 7.78058C3.4436 7.16541 3.94853 6.66675 4.57138 6.66675H10.4922C11.1151 6.66675 11.62 7.16541 11.62 7.78058V19.1682H3.4436V7.78058Z" fill="#F8CBD8"/>
<path d="M33.0482 7.78058C33.0482 7.16541 33.5532 6.66675 34.176 6.66675H40.0969C40.7197 6.66675 41.2247 7.16541 41.2247 7.78058V19.1682H33.0482V7.78058Z" fill="#C6B3D6"/>
<path d="M3.51776 13.4136L11.5886 11.429V18.4567L3.51776 18.359V13.4136Z" fill="#FFE7EE"/>
<path d="M3.4436 17.625H11.62V25.6776H3.4436V17.625Z" fill="#F8CBD8"/>
<path d="M3.4436 29.1908C3.4436 28.5756 3.94853 28.0769 4.57138 28.0769H10.4922C11.1151 28.0769 11.62 28.5756 11.62 29.1908V39.1056C11.62 39.7208 11.1151 40.2195 10.4922 40.2195H4.57138C3.94853 40.2195 3.4436 39.7208 3.4436 39.1056V29.1908Z" fill="#C98E9E"/>
<path d="M32.3071 29.1908C32.3071 28.5756 32.812 28.0769 33.4349 28.0769H39.3557C39.9786 28.0769 40.4835 28.5756 40.4835 29.1908V39.1056C40.4835 39.7208 39.9786 40.2195 39.3557 40.2195H33.4349C32.812 40.2195 32.3071 39.7208 32.3071 39.1056V29.1908Z" fill="#C98E9E"/>
<path d="M41.2246 17.625H33.0482V25.6776H41.2246V17.625Z" fill="#F8CBD8"/>
<path d="M23.8849 27.7292H20.7835V33.1245H23.8849V27.7292Z" fill="#C4C4C4"/>
<path d="M11.62 30.7266H3.4436V33.4416H11.62V30.7266Z" fill="#B67486"/>
<path d="M40.4835 30.7266H32.3071V33.4416H40.4835V30.7266Z" fill="#B67486"/>
<path d="M32.3051 35.4543H11.6174V36.9163H32.3051V35.4543Z" fill="#9B5669"/>
<path d="M33.0452 13.1331H11.6174V14.595H33.0452V13.1331Z" fill="#9B5669"/>
<path opacity="0.92" d="M32.3051 30.7266H11.6174V33.4416H32.3051V30.7266Z" fill="#9B5669"/>
<path opacity="0.92" d="M33.0452 19.6138H11.6174V23.7614H33.0452V19.6138Z" fill="#9B5669"/>
<path d="M1.74915 25.6755H43.2667V30.7227C43.2667 31.3379 42.7617 31.8366 42.1389 31.8366H2.87692C2.25407 31.8366 1.74915 31.3379 1.74915 30.7227V25.6755Z" fill="#F8CBD8"/>
<path d="M26.35 21.324H17.9622C17.0279 21.324 16.2705 22.072 16.2705 22.9948V29.7647C16.2705 30.6874 17.0279 31.4355 17.9622 31.4355H26.35C27.2843 31.4355 28.0417 30.6874 28.0417 29.7647V22.9948C28.0417 22.072 27.2843 21.324 26.35 21.324Z" fill="#DEAAB8"/>
<path d="M18.9007 21.324H17.9621C17.0279 21.324 16.2705 22.072 16.2705 22.9948V29.7647C16.2705 30.6874 17.0279 31.4355 17.9621 31.4355H18.5269C18.8224 31.4355 19.0602 31.1955 19.0538 30.9037L18.9007 23.8739V21.324Z" fill="#FFE7EE"/>
<path d="M26.35 23.8127H17.9622C17.0279 23.8127 16.2705 24.5608 16.2705 25.4835V32.109C16.2705 33.0318 17.0279 33.7798 17.9622 33.7798H26.35C27.2843 33.7798 28.0417 33.0318 28.0417 32.109V25.4835C28.0417 24.5608 27.2843 23.8127 26.35 23.8127Z" fill="#6F95CD"/>
<path d="M21.962 29.5836C23.1883 29.5836 24.1823 28.7019 24.1823 27.6143C24.1823 26.5267 23.1883 25.645 21.962 25.645C20.7358 25.645 19.7417 26.5267 19.7417 27.6143C19.7417 28.7019 20.7358 29.5836 21.962 29.5836Z" fill="#9B5669"/>
<path d="M21.4577 28.6684C21.6655 28.258 22.2586 28.258 22.4664 28.6684L23.4768 30.6642C23.6643 31.0345 23.3917 31.4702 22.9724 31.4702H20.9516C20.5324 31.4702 20.2598 31.0345 20.4473 30.6642L21.4577 28.6684Z" fill="#9B5669"/>
<path d="M33.0668 9.10268L41.2066 7.16284V11.5877L33.0668 13.5276V9.10268Z" fill="#FFE7EE"/>
<path d="M16.2715 23.5322H11.5227V25.645H16.2715V23.5322Z" fill="#FFE7EE"/>
</svg>
