<svg width="40" height="40" viewBox="0 0 40 40" fill="none" xmlns="http://www.w3.org/2000/svg">
<path d="M30.4619 6.68481H9.53796V31.413H30.4619V6.68481Z" fill="#789DD4"/>
<path fill-rule="evenodd" clip-rule="evenodd" d="M2.8804 5.25817C2.8804 4.47027 3.51913 3.83154 4.30704 3.83154H8.11138C8.89929 3.83154 9.53801 4.47027 9.53801 5.25817V17.1468H30.4619V5.25817C30.4619 4.47027 31.1006 3.83154 31.8885 3.83154H35.6929C36.4808 3.83154 37.1195 4.47027 37.1195 5.25817V34.7419C37.1195 35.5298 36.4808 36.1685 35.6929 36.1685H4.30704C3.51913 36.1685 2.8804 35.5298 2.8804 34.7419V5.25817ZM9.53801 31.413H30.4619V22.8533H9.53801V31.413Z" fill="#C6B3D6"/>
<path d="M37.1195 26.59L26.8227 36.1684H4.93652L10.0486 31.4129H30.4619V22.8531H19.2504L25.3849 17.1466H30.4619V12.4238L37.1195 6.23071V26.59Z" fill="#F8CBD8"/>
<path d="M9.53801 17.0713L2.8804 23.2645V12.1851L9.53801 5.99194V17.0713Z" fill="#F8CBD8"/>
<path d="M16.4295 13.1274H23.906C25.0859 13.1274 26.0422 14.1163 26.0422 15.3363V24.1723C26.0422 25.3922 25.0859 26.3812 23.906 26.3812H16.4295C15.2497 26.3812 14.2934 25.3922 14.2934 24.1723V15.3363C14.2934 14.1163 15.2497 13.1274 16.4295 13.1274Z" fill="#F8CBD8"/>
<path d="M22.7724 18.0974C22.7724 16.5724 21.5769 15.3362 20.1021 15.3362C18.6274 15.3362 17.432 16.5724 17.432 18.0974C17.432 18.9982 17.849 19.7982 18.4944 20.3022L17.8176 22.7659C17.7906 22.8641 17.777 22.9657 17.777 23.0677C17.777 23.6777 18.2551 24.1722 18.8451 24.1722H21.358C21.4568 24.1722 21.5549 24.1581 21.6499 24.1302C22.2173 23.9636 22.5466 23.3527 22.3855 22.7659L21.7089 20.3029C22.3549 19.7991 22.7724 18.9987 22.7724 18.0974Z" fill="#DB7E98"/>
</svg>
