<svg width="19" height="24" viewBox="0 0 19 24" fill="none" xmlns="http://www.w3.org/2000/svg">
<g clip-path="url(#clip0_729_19600)">
<path d="M2.48968 5.61042C1.49993 6.20773 0.894958 7.27945 0.894958 8.43545V15.7055C0.894958 16.8615 1.49993 17.9332 2.48968 18.5305L7.35927 21.4693C8.40777 22.1021 9.72049 22.1021 10.7691 21.4694L15.6389 18.5305C16.6287 17.9332 17.2337 16.8615 17.2337 15.7054V8.43552C17.2337 7.27946 16.6287 6.20772 15.6389 5.61042L10.7691 2.67158C9.72049 2.03882 8.40777 2.03884 7.35927 2.67162L2.48968 5.61042Z" fill="#1CB0F6" stroke="white" stroke-width="2"/>
<path fill-rule="evenodd" clip-rule="evenodd" d="M7.84806 4.85336C8.38928 4.52092 9.08549 4.91033 9.08549 5.54548V7.92598C9.08549 8.21025 8.93688 8.47387 8.69365 8.62098L6.47701 9.9619C6.20168 10.1284 5.85397 10.1168 5.59045 9.93204L3.7959 8.67453C3.31724 8.33909 3.33887 7.62312 3.83691 7.31721L7.84806 4.85336Z" fill="#DDF4FF"/>
</g>
<defs>
<clipPath id="clip0_729_19600">
<rect width="18.0504" height="22.563" fill="white" transform="translate(0.142853 0.752075)"/>
</clipPath>
</defs>
</svg>
