<svg width="19" height="23" viewBox="0 0 19 23" fill="none" xmlns="http://www.w3.org/2000/svg">
<g clip-path="url(#clip0_729_19597)">
<path d="M11.2279 12.9475C11.2508 12.9788 11.2762 13.0082 11.3037 13.0356C11.7609 13.4901 12.0357 14.1015 12.0357 14.771C12.0357 16.1303 10.8832 17.2801 9.40127 17.2801C7.91937 17.2801 6.76682 16.1303 6.76682 14.771C6.76682 14.1772 6.98265 13.6304 7.34939 13.1974C7.3888 13.1509 7.42234 13.0998 7.44931 13.0453L9.37449 10.4238L11.2279 12.9475ZM11.0942 1.72281C10.2291 0.632103 8.57339 0.63211 7.70829 1.72283L5.26305 4.80559L3.98933 4.12379C3.98933 4.12379 3.98932 4.12379 3.98932 4.12379C3.84269 4.0453 3.65425 3.97855 3.50964 3.9329C3.35911 3.88538 3.186 3.83892 3.05006 3.81601C2.36748 3.70098 1.7536 3.91908 1.33575 4.3994C0.945042 4.84852 0.786007 5.45393 0.78766 6.04754L0.80534 12.4092C0.771535 12.7094 0.754211 13.0141 0.754211 13.3225C0.754211 17.963 4.65256 21.6771 9.40127 21.6771C14.15 21.6771 18.0483 17.963 18.0483 13.3225C18.0483 11.3661 17.3517 9.56778 16.19 8.14712L11.0942 1.72283C11.0942 1.72282 11.0942 1.72282 11.0942 1.72281Z" fill="#84DE4D" stroke="white" stroke-width="1.5" stroke-linejoin="round"/>
</g>
<defs>
<clipPath id="clip0_729_19597">
<rect width="18.8025" height="22.563" fill="white"/>
</clipPath>
</defs>
</svg>
