<svg width="64" height="64" viewBox="0 0 64 64" fill="none" xmlns="http://www.w3.org/2000/svg">
<path fill-rule="evenodd" clip-rule="evenodd" d="M11.2684 10.1186C10.5396 11.549 10.5396 13.4215 10.5396 17.1665V20.0525C10.5396 23.7974 10.5396 25.6699 11.2684 27.1003C11.9095 28.3585 12.9324 29.3815 14.1906 30.0226C14.8585 30.3629 15.6228 30.5443 16.6291 30.641L16.6024 33.1092C16.5816 35.0196 18.8973 35.9835 20.2382 34.6226L24.0524 30.7514H28.7238C32.4688 30.7514 34.3413 30.7514 35.7717 30.0226C37.0299 29.3815 38.0528 28.3585 38.6939 27.1003C39.4228 25.6699 39.4228 23.7974 39.4228 20.0525V17.1665C39.4228 13.4215 39.4228 11.549 38.6939 10.1186C38.0528 8.8604 37.0299 7.83744 35.7717 7.19635C34.3413 6.46753 32.4688 6.46753 28.7238 6.46753H21.2385C17.4935 6.46753 15.621 6.46753 14.1906 7.19635C12.9324 7.83744 11.9095 8.8604 11.2684 10.1186Z" fill="#E6C0FF"/>
<path fill-rule="evenodd" clip-rule="evenodd" d="M52.4767 17.0083C53.2056 18.4387 53.2056 20.3111 53.2056 24.0561V26.9421C53.2056 30.6871 53.2056 32.5596 52.4767 33.99C51.8357 35.2482 50.8127 36.2711 49.5545 36.9122C48.8866 37.2525 48.1223 37.434 47.116 37.5307L47.1428 39.9989C47.1635 41.9092 44.8478 42.8731 43.5069 41.5122L39.6928 37.6411H35.0213C31.2763 37.6411 29.4038 37.6411 27.9734 36.9122C26.7152 36.2711 25.6923 35.2482 25.0512 33.99C24.3224 32.5596 24.3224 30.6871 24.3224 26.9421V24.0561C24.3224 20.3111 24.3224 18.4387 25.0512 17.0083C25.6923 15.75 26.7152 14.7271 27.9734 14.086C29.4038 13.3572 31.2763 13.3572 35.0213 13.3572H42.5066C46.2516 13.3572 48.1241 13.3572 49.5545 14.086C50.8127 14.7271 51.8357 15.75 52.4767 17.0083Z" fill="#CE82FF"/>
<mask id="mask0_732_20905" style="mask-type:luminance" maskUnits="userSpaceOnUse" x="21" y="10" width="36" height="36">
<path d="M56.2056 10.3572H21.2056V45.3572H56.2056V10.3572Z" fill="white"/>
<path fill-rule="evenodd" clip-rule="evenodd" d="M52.4767 17.0083C53.2056 18.4387 53.2056 20.3111 53.2056 24.0561V26.9421C53.2056 30.6871 53.2056 32.5596 52.4767 33.99C51.8357 35.2482 50.8127 36.2711 49.5545 36.9122C48.8866 37.2525 48.1223 37.434 47.116 37.5307L47.1428 39.9989C47.1635 41.9092 44.8478 42.8731 43.5069 41.5122L39.6928 37.6411H35.0213C31.2763 37.6411 29.4038 37.6411 27.9734 36.9122C26.7152 36.2711 25.6923 35.2482 25.0512 33.99C24.3224 32.5596 24.3224 30.6871 24.3224 26.9421V24.0561C24.3224 20.3111 24.3224 18.4387 25.0512 17.0083C25.6923 15.75 26.7152 14.7271 27.9734 14.086C29.4038 13.3572 31.2763 13.3572 35.0213 13.3572H42.5066C46.2516 13.3572 48.1241 13.3572 49.5545 14.086C50.8127 14.7271 51.8357 15.75 52.4767 17.0083Z" fill="black"/>
</mask>
<g mask="url(#mask0_732_20905)">
<path d="M47.116 37.5306L44.7917 37.5558L44.7686 35.4211L46.8936 35.2168L47.116 37.5306ZM39.6928 37.641V35.3166H40.6656L41.3485 36.0096L39.6928 37.641ZM50.8812 24.056C50.8812 22.1452 50.8794 20.8518 50.7978 19.8534C50.7185 18.8821 50.5753 18.3963 50.4057 18.0634L54.5478 15.9529C55.107 17.0504 55.3283 18.2161 55.4311 19.4748C55.5317 20.7065 55.5299 22.2219 55.5299 24.056H50.8812ZM50.8812 26.942V24.056H55.5299V26.942H50.8812ZM50.4057 32.9346C50.5753 32.6017 50.7185 32.1159 50.7978 31.1446C50.8794 30.1462 50.8812 28.8528 50.8812 26.942H55.5299C55.5299 28.7761 55.5317 30.2915 55.4311 31.5232C55.3283 32.782 55.107 33.9476 54.5478 35.0451L50.4057 32.9346ZM48.4992 34.8411C49.3201 34.4229 49.9875 33.7555 50.4057 32.9346L54.5478 35.0451C53.6838 36.7407 52.3053 38.1192 50.6097 38.9832L48.4992 34.8411ZM46.8936 35.2168C47.7438 35.1352 48.1892 34.9991 48.4992 34.8411L50.6097 38.9832C49.584 39.5058 48.5008 39.7326 47.3383 39.8443L46.8936 35.2168ZM44.8185 40.024L44.7917 37.5558L49.4402 37.5053L49.467 39.9735L44.8185 40.024ZM45.1627 39.8808C45.1632 39.8813 45.1513 39.8696 45.1258 39.8562C45.1008 39.8432 45.073 39.8339 45.0456 39.8291C44.9932 39.8199 44.9592 39.8292 44.9423 39.8363C44.9253 39.8433 44.8947 39.8609 44.8644 39.9045C44.8484 39.9274 44.8354 39.9537 44.8271 39.9805C44.8186 40.0081 44.8185 40.0247 44.8185 40.024L49.467 39.9735C49.5104 43.9751 44.6599 45.9941 41.8512 43.1435L45.1627 39.8808ZM41.3485 36.0096L45.1627 39.8808L41.8512 43.1435L38.037 39.2723L41.3485 36.0096ZM35.0213 35.3166H39.6928V39.9653H35.0213V35.3166ZM29.0287 34.8411C29.3616 35.0107 29.8474 35.1538 30.8187 35.2332C31.8171 35.3148 33.1105 35.3166 35.0213 35.3166V39.9653C33.1872 39.9653 31.6718 39.9671 30.4401 39.8665C29.1813 39.7637 28.0157 39.5424 26.9182 38.9832L29.0287 34.8411ZM27.1222 32.9346C27.5405 33.7555 28.2078 34.4229 29.0287 34.8411L26.9182 38.9832C25.2226 38.1192 23.8441 36.7407 22.9802 35.0451L27.1222 32.9346ZM26.6467 26.942C26.6467 28.8528 26.6485 30.1462 26.7301 31.1446C26.8095 32.1159 26.9526 32.6017 27.1222 32.9346L22.9802 35.0451C22.421 33.9476 22.1997 32.782 22.0968 31.5232C21.9962 30.2915 21.998 28.7761 21.998 26.942H26.6467ZM26.6467 24.056V26.942H21.998V24.056H26.6467ZM27.1222 18.0634C26.9526 18.3963 26.8095 18.8821 26.7301 19.8534C26.6485 20.8518 26.6467 22.1452 26.6467 24.056H21.998C21.998 22.2219 21.9962 20.7065 22.0968 19.4748C22.1997 18.2161 22.421 17.0504 22.9802 15.9529L27.1222 18.0634ZM29.0287 16.1569C28.2078 16.5752 27.5405 17.2425 27.1222 18.0634L22.9802 15.9529C23.8441 14.2573 25.2226 12.8788 26.9182 12.0149L29.0287 16.1569ZM35.0213 15.6814C33.1105 15.6814 31.8171 15.6833 30.8187 15.7648C29.8474 15.8442 29.3616 15.9873 29.0287 16.1569L26.9182 12.0149C28.0157 11.4557 29.1813 11.2344 30.4401 11.1315C31.6718 11.0309 33.1872 11.0327 35.0213 11.0327V15.6814ZM42.5066 15.6814H35.0213V11.0327H42.5066V15.6814ZM48.4992 16.1569C48.1663 15.9873 47.6805 15.8442 46.7092 15.7648C45.7108 15.6833 44.4175 15.6814 42.5066 15.6814V11.0327C44.3408 11.0327 45.8561 11.0309 47.0878 11.1315C48.3466 11.2344 49.5122 11.4557 50.6097 12.0149L48.4992 16.1569ZM50.4057 18.0634C49.9875 17.2425 49.3201 16.5752 48.4992 16.1569L50.6097 12.0149C52.3053 12.8788 53.6838 14.2573 54.5478 15.9529L50.4057 18.0634Z" fill="white"/>
</g>
<path d="M30.617 23.1494V21.0611C30.617 20.3922 30.6471 20.2314 30.7309 20.0697C30.7816 19.9718 30.847 19.9042 30.941 19.8523C31.0958 19.7669 31.2492 19.7363 31.8949 19.7363H34.7442C35.5467 19.7363 36.1973 19.0673 36.1973 18.2421C36.1973 17.4168 35.5467 16.7478 34.7442 16.7478H31.8949C30.8091 16.7478 30.2009 16.869 29.5665 17.2192C28.9662 17.5506 28.4867 18.0456 28.1661 18.6644C27.8279 19.3172 27.7109 19.9425 27.7109 21.0611V23.1494C27.7109 23.9746 28.3614 24.6437 29.1639 24.6437C29.9664 24.6437 30.617 23.9746 30.617 23.1494Z" fill="#E6C0FF"/>
</svg>
