<svg width="191" height="185" viewBox="0 0 191 185" fill="none" xmlns="http://www.w3.org/2000/svg">
<g clip-path="url(#clip0_147_169)">
<path d="M172.43 59.47L157.85 76.67C159.66 82.9 160.64 89.49 160.64 96.31C160.64 135.18 129.02 166.8 90.15 166.8C51.28 166.8 19.66 135.18 19.66 96.31C19.66 57.44 51.28 25.83 90.15 25.83C102.64 25.83 114.39 29.1 124.57 34.82L137.46 19.61C123.7 11.07 107.48 6.16003 90.14 6.16003C40.44 6.16003 0 46.6 0 96.32C0 146.04 40.44 186.48 90.16 186.48C139.88 186.48 180.32 146.04 180.32 96.32C180.32 83.2 177.5 70.72 172.44 59.48L172.43 59.47Z" fill="#82CE51"/>
<path d="M100.09 125.89L55.5698 81.36L77.1999 59.73L98.2398 80.77L166.73 0L190.07 19.79L100.09 125.89Z" fill="#82CE51"/>
</g>
<defs>
<clipPath id="clip0_147_169">
<rect width="191" height="185" fill="white"/>
</clipPath>
</defs>
</svg>
