<svg width="40" height="40" viewBox="0 0 40 40" fill="none" xmlns="http://www.w3.org/2000/svg">
<path d="M30.7315 31.5823C30.3604 33.5304 28.6571 34.9399 26.674 34.9399H13.3001C11.3169 34.9399 9.61367 33.5304 9.2426 31.5823L6.2262 15.7461L19.8751 5.65283L33.7485 15.7426L30.7315 31.5823Z" fill="#789DD4"/>
<path fill-rule="evenodd" clip-rule="evenodd" d="M16.4448 28.8888C16.4448 28.1524 17.0416 27.5554 17.778 27.5554H23.1114C23.8478 27.5554 24.4448 28.1524 24.4448 28.8888C24.4448 29.6252 23.8478 30.2222 23.1114 30.2222H17.778C17.0416 30.2222 16.4448 29.6252 16.4448 28.8888Z" fill="#F8CBD8"/>
<path d="M24.3482 20.3747C24.3482 22.776 22.4015 24.7225 20.0003 24.7225C17.599 24.7225 15.6525 22.776 15.6525 20.3747C15.6525 17.9735 17.599 16.0269 20.0003 16.0269C22.4015 16.0269 24.3482 17.9735 24.3482 20.3747Z" fill="#F8CBD8"/>
<path d="M20.2106 3.55587C20.8039 3.55298 21.4041 3.73246 21.9201 4.10707L37.4319 15.29C38.7226 16.2278 39.0087 18.0345 38.071 19.3252C37.1334 20.6156 35.3275 20.902 34.0367 19.965L20.2002 9.98991L6.3651 19.9641L6.36401 19.965C5.07331 20.9017 3.26744 20.6155 2.32989 19.325C1.39209 18.0342 1.67822 16.2276 2.969 15.2898L2.97099 15.2883L18.4799 4.10755C19.0019 3.72861 19.6109 3.54871 20.2106 3.55587Z" fill="#F8CBD8"/>
</svg>
