<svg width="40" height="41" viewBox="0 0 40 41" fill="none" xmlns="http://www.w3.org/2000/svg">
<g clip-path="url(#clip0_752_704)">
<path d="M9.658 13.7231H1V26.9941H9.658V13.7231Z" fill="#789DD4"/>
<path d="M1 26.9939H9.658V35.7169H3.775C2.24241 35.7169 1 34.4652 1 32.9211V26.9939Z" fill="#CAD3EF"/>
<path d="M9.65799 26.9939H30.489V32.9211C30.489 34.4652 29.2466 35.7169 27.714 35.7169H9.65799V26.9939Z" fill="#9BA9D5"/>
<path d="M21.6529 20.3584H30.1999V27.6649H21.6529V20.3584Z" fill="#9BA9D5"/>
<path d="M21.6529 5H27.4249C28.9575 5 30.1999 6.25174 30.1999 7.79584V20.3585H21.6529V5Z" fill="#789DD4"/>
<path d="M21.942 5H9.65799V13.723H21.942V5Z" fill="#789DD4"/>
<path d="M9.658 5V13.723H1L9.658 5Z" fill="#CAD3EF"/>
<path d="M22.7636 21.2796C22.1882 20.8024 22.1882 19.9147 22.7636 19.4376L35.756 8.66353C36.5284 8.02296 37.6924 8.57658 37.6924 9.58456V31.1326C37.6924 32.1406 36.5285 32.6942 35.756 32.0536L22.7636 21.2796Z" fill="#CAD3EF"/>
<path d="M21.668 20.3586L30.1953 13.2981V27.4192L21.668 20.3586Z" fill="#CAD3EF"/>
</g>
<defs>
<clipPath id="clip0_752_704">
<rect width="37" height="30.717" fill="white" transform="translate(1 5)"/>
</clipPath>
</defs>
</svg>
