<svg width="42" height="35" viewBox="0 0 42 35" fill="none" xmlns="http://www.w3.org/2000/svg">
<g clip-path="url(#clip0_732_21479)">
<path fill-rule="evenodd" clip-rule="evenodd" d="M20.8731 5.03821C16.9449 5.03821 13.7604 8.02408 13.7604 11.7073V13.983C13.7604 14.0386 13.7612 14.0941 13.7626 14.1493H13.7049C11.854 14.1493 10.3535 15.6498 10.3535 17.5007V26.4418C10.3535 28.2927 11.854 29.7932 13.7049 29.7932H28.0455C29.8965 29.7932 31.397 28.2927 31.397 26.4418V17.5008C31.397 15.6498 29.8965 14.1493 28.0455 14.1493H27.9837C27.9851 14.0941 27.9858 14.0386 27.9858 13.983V11.7073C27.9858 8.02407 24.8014 5.03821 20.8731 5.03821ZM24.4812 14.1493C24.484 14.0942 24.4855 14.0388 24.4855 13.983V11.7073C24.4855 9.8367 22.8682 8.32027 20.8731 8.32027C18.8781 8.32027 17.2608 9.8367 17.2608 11.7073V13.983C17.2608 14.0388 17.2622 14.0942 17.2651 14.1493H24.4812Z" fill="white"/>
</g>
<defs>
<clipPath id="clip0_732_21479">
<rect width="42" height="34" fill="white" transform="translate(0 0.5)"/>
</clipPath>
</defs>
</svg>
