<svg width="42" height="35" viewBox="0 0 42 35" fill="none" xmlns="http://www.w3.org/2000/svg">
<path fill-rule="evenodd" clip-rule="evenodd" d="M21.1269 5.03809C25.0551 5.03809 28.2396 8.02396 28.2396 11.7072V13.9829C28.2396 14.0385 28.2388 14.094 28.2374 14.1492H28.2951C30.146 14.1492 31.6465 15.6497 31.6465 17.5006V26.4417C31.6465 28.2926 30.146 29.7931 28.2951 29.7931H13.9545C12.1035 29.7931 10.603 28.2926 10.603 26.4417V17.5007C10.603 15.6497 12.1035 14.1492 13.9545 14.1492H14.0163C14.0149 14.094 14.0142 14.0385 14.0142 13.9829V11.7072C14.0142 8.02395 17.1986 5.03809 21.1269 5.03809ZM17.5188 14.1492C17.516 14.0941 17.5145 14.0387 17.5145 13.9829V11.7072C17.5145 9.83658 19.1318 8.32015 21.1269 8.32015C23.1219 8.32015 24.7392 9.83658 24.7392 11.7072V13.9829C24.7392 14.0387 24.7378 14.0941 24.7349 14.1492H17.5188Z" fill="#AFAFAF"/>
</svg>
