<svg width="40" height="41" viewBox="0 0 40 41" fill="none" xmlns="http://www.w3.org/2000/svg">
<path fill-rule="evenodd" clip-rule="evenodd" d="M20.1588 4.83545C12.4749 4.83545 6.24576 11.0645 6.24576 18.7485V19.562C3.66886 20.8426 1.89793 23.5018 1.89793 26.5746C1.89793 30.8968 5.40179 34.4007 9.724 34.4007H30.5936C34.9158 34.4007 38.4197 30.8968 38.4197 26.5746C38.4197 23.5018 36.6488 20.8426 34.0718 19.562V18.7485C34.0718 11.0645 27.8428 4.83545 20.1588 4.83545Z" fill="#789DD4"/>
<path d="M9.724 18.7485C9.724 12.9855 14.3958 8.31372 20.1588 8.31372C25.9217 8.31372 30.5936 12.9855 30.5936 18.7485V25.7051C30.5936 31.468 25.9217 36.1398 20.1588 36.1398C14.3958 36.1398 9.724 31.468 9.724 25.7051V18.7485Z" fill="#FFD7B3"/>
<path d="M6.24576 21.7919C6.24576 19.6308 7.99769 17.8789 10.1588 17.8789H30.1588C32.3199 17.8789 34.0718 19.6308 34.0718 21.7919C34.0718 23.953 32.3199 25.705 30.1588 25.705H10.1588C7.99769 25.705 6.24576 23.953 6.24576 21.7919Z" fill="#FFD7B3"/>
<path d="M15.811 18.3136C15.811 17.5932 16.395 17.0093 17.1153 17.0093C17.8357 17.0093 18.4197 17.5932 18.4197 18.3136V21.7919C18.4197 22.5122 17.8357 23.0962 17.1153 23.0962C16.395 23.0962 15.811 22.5122 15.811 21.7919V18.3136Z" fill="#DB7E98"/>
<path d="M21.0284 18.3136C21.0284 17.5932 21.6124 17.0093 22.3327 17.0093C23.053 17.0093 23.637 17.5932 23.637 18.3136V21.7919C23.637 22.5122 23.053 23.0962 22.3327 23.0962C21.6124 23.0962 21.0284 22.5122 21.0284 21.7919V18.3136Z" fill="#DB7E98"/>
<path d="M15.2 26.1763C15.2 25.6756 15.6059 25.2698 16.1066 25.2698H23.8587C24.3594 25.2698 24.7652 25.6756 24.7652 26.1763V26.5741C24.7652 29.2154 22.624 31.3567 19.9826 31.3567C17.3413 31.3567 15.2 29.2154 15.2 26.5741V26.1763Z" fill="white"/>
<path d="M6.24576 18.7522V18.7485C6.24576 11.0645 12.4749 4.83545 20.1588 4.83545C22.626 4.83545 24.9432 5.47766 26.9524 6.60401C25.8544 13.9642 19.3379 19.6181 11.4631 19.6181C9.63374 19.6181 7.87764 19.313 6.24576 18.7522Z" fill="#789DD4"/>
</svg>
