<svg width="358" height="105" viewBox="0 0 358 105" fill="none" xmlns="http://www.w3.org/2000/svg">
<g clip-path="url(#clip0_812_310)">
<mask id="mask0_812_310" style="mask-type:luminance" maskUnits="userSpaceOnUse" x="0" y="0" width="140" height="105">
<path d="M140 0H0V105H140V0Z" fill="white"/>
</mask>
<g mask="url(#mask0_812_310)">
<mask id="mask1_812_310" style="mask-type:luminance" maskUnits="userSpaceOnUse" x="0" y="0" width="140" height="105">
<path d="M0 0H140V105H0V0Z" fill="white"/>
</mask>
<g mask="url(#mask1_812_310)">
<g opacity="0.3">
<path d="M70.5169 104.414C93.8858 104.414 112.83 89.7309 112.83 71.6199C112.83 53.5089 93.8858 38.8262 70.5169 38.8262C47.1479 38.8262 28.2034 53.5089 28.2034 71.6199C28.2034 89.7309 47.1479 104.414 70.5169 104.414Z" fill="#AFAFAF"/>
</g>
<path d="M70.353 6.4727C65.6153 6.4727 62.0526 5.68643 58.6521 4.50317C55.548 3.42343 52.578 2.39075 48.9741 2.39075C36.8909 2.39075 33.0178 15.6171 33.173 19.9626V50.9122C33.173 81.1132 58.3469 89.2685 70.353 89.5705C82.359 89.2685 107.533 81.1132 107.533 50.9122V19.9626C107.688 15.6171 103.815 2.39075 91.7318 2.39075C88.1279 2.39075 85.1579 3.42343 82.0538 4.50317C78.6534 5.68643 75.0907 6.4727 70.353 6.4727Z" fill="#A385A6"/>
<path d="M74.3381 75.0291L83.2775 73.7113C83.757 73.6409 84.1417 73.9935 84.0389 74.4082C83.542 76.4006 81.6232 78.0096 79.2609 78.3575C76.8987 78.7053 74.6825 77.7065 73.7578 75.9235C73.5648 75.5524 73.8586 75.0995 74.3381 75.0291Z" fill="#B83B5E"/>
<path d="M74.8157 80.6088C71.386 80.5938 70.0842 80.6127 66.6117 80.6153C63.5738 80.6178 67.043 83.6256 70.5156 83.6231C73.9881 83.6205 77.1449 80.6187 74.8157 80.6088Z" fill="#A179A5"/>
<path d="M58.276 73.7617L67.2449 74.8922C67.7259 74.9531 68.0006 75.3954 67.7887 75.7666C66.7681 77.5492 64.4821 78.5819 62.1122 78.2828C59.7423 77.9837 57.8794 76.4288 57.4737 74.4662C57.3888 74.0575 57.795 73.7008 58.276 73.7617Z" fill="#B83B5E"/>
<path d="M46.2786 78.3757C43.8053 80.7409 43.7245 84.6525 46.0982 87.1118L49.0214 90.1404C51.395 92.5997 55.3249 92.6759 57.7981 90.3107C60.2714 87.9455 60.3522 84.0338 57.9785 81.5746L55.0553 78.546C52.6817 76.0867 48.7518 76.0104 46.2786 78.3757Z" fill="#B83B5E"/>
<path d="M98.5938 78.946C100.711 81.6316 100.243 85.5159 97.5473 87.621L94.2278 90.2135C91.5323 92.3187 87.6299 91.848 85.5124 89.1624C83.3949 86.4768 83.8635 82.5925 86.559 80.4874L89.8785 77.8949C92.574 75.7898 96.4763 76.2604 98.5938 78.946Z" fill="#B83B5E"/>
<path d="M107.296 46.8432C102.582 64.9086 109.673 68.1083 94.8697 68.3571C74.1808 68.7047 77.7215 82.9913 88.2704 85.0623C104.928 85.8531 108.516 78.2985 107.296 46.8432Z" fill="#A385A6"/>
<path d="M104.974 66.1142C103.752 67.5376 101.263 68.0108 95.9167 68.0953C77.2861 68.3897 78.3054 80.0335 86.4012 83.8572" stroke="#B83B5E" stroke-width="9.99824" stroke-linecap="round"/>
<mask id="mask2_812_310" style="mask-type:luminance" maskUnits="userSpaceOnUse" x="21" y="2" width="98" height="103">
<path d="M21.8813 2.55725H118.113V104.578H21.8813V2.55725Z" fill="white"/>
</mask>
<g mask="url(#mask2_812_310)">
<path d="M78.5967 32.0039C73.9225 36.2322 66.4427 36.2322 62.1998 32.0039C59.395 29.185 59.6829 37.3604 63.0632 56.3895C66.5153 56.3895 68.9605 56.3895 70.327 56.3895C75.3607 56.3192 77.8776 56.3895 77.8776 56.3895C77.8776 56.5301 83.271 27.7756 78.5967 32.0039Z" fill="#A179A5"/>
<path d="M83.8468 36.5854L95.2818 24.1105C95.9291 23.4761 97.0078 23.5473 97.3674 24.3926C99.5964 28.1279 99.0934 32.85 96.0726 36.1627C93.0518 39.4754 88.3059 40.4613 84.2781 38.6995C83.4873 38.2769 83.1995 37.2198 83.8468 36.5854Z" fill="#A179A5"/>
<path d="M77.2305 33.5544L88.6654 21.1506C89.2411 20.5162 90.3197 20.5874 90.751 21.3624C92.9801 25.0977 92.4771 29.819 89.4563 33.1317C86.4355 36.4444 81.6895 37.4303 77.6618 35.6685C76.8709 35.2459 76.5831 34.1888 77.2305 33.5544Z" fill="#A179A5"/>
<path d="M63.7821 33.5544L52.132 21.1506C51.4846 20.5162 50.6929 20.5874 50.1898 21.3624C48.0325 25.0977 48.5355 29.819 51.5563 33.1317C54.5771 36.4444 59.3231 37.4303 63.3508 35.6685C64.1417 35.2459 64.4295 34.1888 63.7821 33.5544Z" fill="#A179A5"/>
<path d="M57.0942 36.5854L45.731 24.1105C45.0836 23.4761 44.005 23.5473 43.5737 24.3926C41.3446 28.1279 41.8476 32.85 44.8684 36.1627C47.8892 39.4754 52.6352 40.4613 56.6629 38.6995C57.4538 38.2769 57.7416 37.2198 57.0942 36.5854Z" fill="#A179A5"/>
<path d="M88.3008 28.0596C97.8435 27.2846 105.727 35.2534 104.639 44.5768L103.638 53.1508C102.831 60.0694 97.0832 65.4285 89.9918 65.8744C81.5313 66.4059 74.3717 59.8251 74.3717 51.5168V42.887C74.3717 35.1462 80.4282 28.6983 88.3008 28.0596Z" fill="#A179A5"/>
<path d="M52.5683 28.0596C43.0256 27.2846 35.1425 35.2534 36.2299 44.5768L37.2307 53.1508C38.0382 60.0694 43.7858 65.4285 50.8772 65.8744C59.3377 66.4059 66.4974 59.8251 66.4974 51.5168V42.887C66.4974 35.1462 60.4409 28.6983 52.5683 28.0596Z" fill="#A179A5"/>
<path d="M53.4013 33.7674C46.7316 32.7215 40.8422 38.1106 41.4485 44.7026L42.0897 51.6777C42.4957 56.0861 45.8559 59.686 50.3001 60.4738C56.4589 61.5652 62.1234 56.9279 62.1234 50.7947V43.7912C62.1234 38.8042 58.4264 34.5553 53.4013 33.7674Z" fill="white"/>
<mask id="mask3_812_310" style="mask-type:alpha" maskUnits="userSpaceOnUse" x="41" y="33" width="22" height="28">
<path d="M53.4013 33.7674C46.7316 32.7215 40.8422 38.1106 41.4485 44.7026L42.0897 51.6777C42.4957 56.0861 45.8559 59.686 50.3001 60.4738C56.4589 61.5652 62.1234 56.9279 62.1234 50.7947V43.7912C62.1234 38.8042 58.4264 34.5553 53.4013 33.7674Z" fill="white"/>
</mask>
<g mask="url(#mask3_812_310)">
<path d="M54.1274 38.3505C50.9256 38.3505 48.4358 41.0776 48.7892 44.1957L49.3745 49.355C49.6606 51.8756 51.8336 53.7822 54.4214 53.7822C57.2261 53.7822 59.4989 51.5541 59.4989 48.8055V43.6144C59.4989 40.7072 57.094 38.3505 54.1274 38.3505Z" fill="#4B4B4B"/>
</g>
<mask id="mask4_812_310" style="mask-type:alpha" maskUnits="userSpaceOnUse" x="41" y="33" width="22" height="28">
<path d="M53.4013 33.7674C46.7316 32.7215 40.8422 38.1106 41.4485 44.7026L42.0897 51.6777C42.4957 56.0861 45.8559 59.686 50.3001 60.4738C56.4589 61.5652 62.1234 56.9279 62.1234 50.7947V43.7912C62.1234 38.8042 58.4264 34.5553 53.4013 33.7674Z" fill="white"/>
</mask>
<g mask="url(#mask4_812_310)">
<path d="M49.1755 44.6932C50.9627 44.6932 52.4115 43.2734 52.4115 41.5219C52.4115 39.7704 50.9627 38.3507 49.1755 38.3507C47.3882 38.3507 45.9395 39.7704 45.9395 41.5219C45.9395 43.2734 47.3882 44.6932 49.1755 44.6932Z" fill="white"/>
</g>
<path d="M87.4677 33.7674C94.1375 32.7215 100.027 38.1106 99.4206 44.7026L98.7793 51.6777C98.3734 56.0861 95.0132 59.686 90.569 60.4738C84.4102 61.5652 78.7457 56.9279 78.7457 50.7947V43.7912C78.7457 38.8042 82.4427 34.5553 87.4677 33.7674Z" fill="white"/>
<mask id="mask5_812_310" style="mask-type:alpha" maskUnits="userSpaceOnUse" x="78" y="33" width="22" height="28">
<path d="M87.4677 33.7674C94.1375 32.7215 100.027 38.1106 99.4206 44.7026L98.7793 51.6777C98.3734 56.0861 95.0132 59.686 90.569 60.4738C84.4102 61.5652 78.7457 56.9279 78.7457 50.7947V43.7912C78.7457 38.8042 82.4427 34.5553 87.4677 33.7674Z" fill="white"/>
</mask>
<g mask="url(#mask5_812_310)">
<path d="M86.7417 38.3505C83.7751 38.3505 81.3702 40.7072 81.3702 43.6144V48.8055C81.3702 51.5541 83.643 53.7822 86.4477 53.7822C89.0355 53.7822 91.2085 51.8756 91.4946 49.355L92.0799 44.1957C92.4333 41.0776 89.9435 38.3505 86.7417 38.3505Z" fill="#4B4B4B"/>
</g>
<mask id="mask6_812_310" style="mask-type:alpha" maskUnits="userSpaceOnUse" x="78" y="33" width="22" height="28">
<path d="M87.4677 33.7674C94.1375 32.7215 100.027 38.1106 99.4206 44.7026L98.7793 51.6777C98.3734 56.0861 95.0132 59.686 90.569 60.4738C84.4102 61.5652 78.7457 56.9279 78.7457 50.7947V43.7912C78.7457 38.8042 82.4427 34.5553 87.4677 33.7674Z" fill="white"/>
</mask>
<g mask="url(#mask6_812_310)">
<path d="M81.9817 44.6932C83.769 44.6932 85.2177 43.2734 85.2177 41.5219C85.2177 39.7704 83.769 38.3507 81.9817 38.3507C80.1944 38.3507 78.7457 39.7704 78.7457 41.5219C78.7457 42.525 79.2207 43.4183 79.9617 43.9996C80.5155 44.4334 81.2179 44.6932 81.9817 44.6932Z" fill="white"/>
</g>
<path d="M75.9357 55.685C75.9357 52.7959 73.4906 50.3988 70.5424 50.3988C67.5942 50.3988 65.149 52.7959 65.149 55.685V57.3757C65.149 60.2649 67.5942 62.6619 70.5424 62.6619C73.4906 62.6619 75.9357 60.2649 75.9357 57.3757V55.685Z" fill="#B83B5E"/>
<path d="M74.4804 53.9966C74.4804 52.2965 72.6949 50.8871 70.542 50.8871C68.389 50.8871 66.6035 52.2965 66.6035 53.9966V54.9911C66.6035 56.6911 68.389 58.1006 70.542 58.1006C72.6949 58.1006 74.4804 56.6911 74.4804 54.9911V53.9966Z" fill="#DB7E98"/>
<path d="M76.0856 54.9049V56.2632C76.0856 57.4892 73.6026 58.4845 70.5444 58.4845C67.4863 58.4845 65.0033 57.4892 65.0033 56.2632V54.9049C65.0033 53.679 67.4863 52.6836 70.5444 52.6836C73.6026 52.6836 76.0856 53.679 76.0856 54.9049Z" fill="#B83B5E"/>
<path d="M74.7431 54.446V55.3495C74.7431 56.3927 73.0526 57.2398 70.9704 57.2398H70.2928C68.2107 57.2398 66.5201 56.3927 66.5201 55.3495V54.446C66.5201 53.4027 68.2107 52.5557 70.2928 52.5557H70.9704C73.0526 52.5557 74.7431 53.4027 74.7431 54.446Z" fill="#B83B5E"/>
<mask id="mask7_812_310" style="mask-type:alpha" maskUnits="userSpaceOnUse" x="66" y="52" width="9" height="6">
<path d="M74.7431 54.446V55.3495C74.7431 56.3927 73.0526 57.2398 70.9704 57.2398H70.2928C68.2107 57.2398 66.5201 56.3927 66.5201 55.3495V54.446C66.5201 53.4027 68.2107 52.5557 70.2928 52.5557H70.9704C73.0526 52.5557 74.7431 53.4027 74.7431 54.446Z" fill="#A96606"/>
</mask>
<g mask="url(#mask7_812_310)">
<path d="M70.4595 55.9105C72.8259 55.9105 74.7473 56.6025 74.7473 57.4549C74.7473 58.3072 72.8259 58.9992 70.4595 58.9992C68.093 58.9992 66.1716 58.3072 66.1716 57.4549C66.1716 56.6025 68.093 55.9105 70.4595 55.9105Z" fill="#FFCAFF"/>
</g>
<path d="M70.6139 50.3986C66.874 50.3986 63.7106 52.7956 63.0632 56.0372V56.3184C63.0632 56.5301 63.135 56.6004 63.3511 56.6004L70.7093 58.6657C70.8527 58.6657 77.5898 56.6004 77.5898 56.6004C77.8059 56.6707 77.8777 56.5301 77.8777 56.3184V56.0372C77.2303 52.8659 74.1377 50.3986 70.6139 50.3986Z" fill="#B83B5E"/>
<path d="M68.8886 53.2581C69.4501 52.944 70.9014 52.6708 72.1628 53.3282" stroke="#7F6182" stroke-width="15.4419" stroke-linecap="round"/>
</g>
<mask id="mask8_812_310" style="mask-type:luminance" maskUnits="userSpaceOnUse" x="65" y="47" width="51" height="47">
<path d="M81.5967 93.6183L65.3 70.4601L98.724 47.6725L115.021 70.8307L81.5967 93.6183Z" fill="white"/>
</mask>
<g mask="url(#mask8_812_310)">
<path d="M94.93 71.8399C95.6222 72.8236 96.9923 73.0696 97.99 72.3895L105.526 67.2517C106.524 66.5716 106.771 65.2226 106.079 64.2389L101.623 57.9075C100.931 56.9239 99.5611 56.6778 98.5635 57.3579L91.0276 62.4957C90.0299 63.1758 89.7823 64.5248 90.4745 65.5085L94.93 71.8399Z" fill="#FFBEE5"/>
<path d="M84.2974 81.178C84.7385 81.2319 85.1842 81.1244 85.5497 80.8752L102.64 69.2226L95.6762 59.3258L78.5858 70.9785C78.2203 71.2276 77.9613 71.6006 77.8576 72.026L76.2334 78.6907C76.0443 79.4669 76.5834 80.233 77.3881 80.3316L84.2974 81.178Z" fill="#FFEDBF"/>
<path d="M85.5511 80.8731C85.4648 80.9319 85.3746 80.9822 85.2805 81.0252L85.2203 78.6172C85.2121 78.2827 85.0135 77.9805 84.7074 77.8353L81.9647 76.5318C81.6776 76.3954 81.4845 76.121 81.4557 75.8085L81.1802 72.8229C81.1497 72.4898 80.9321 72.2006 80.6168 72.0754L78.3477 71.1734C78.4217 71.1018 78.5013 71.0364 78.5876 70.9775L95.0364 59.7631L102 69.6586L85.5511 80.8731Z" fill="#DB7E98"/>
<path d="M95.7231 69.7308L87.3488 75.4419" stroke="#DB7E98" stroke-width="6.21971" stroke-linecap="round"/>
<path d="M78.5924 78.3223C78.1005 77.6234 77.4314 77.1178 76.6861 76.8229L76.2301 78.6957C76.0411 79.4715 76.5796 80.2368 77.3839 80.3354L79.3478 80.5761C79.324 79.7959 79.0779 79.0124 78.5924 78.3223Z" fill="#606060"/>
<path d="M93.6977 60.6797L100.656 70.5682L102.93 69.0171L95.9725 59.1286L93.6977 60.6797Z" fill="#C4C4C4"/>
<path d="M92.7609 65.5201L84.3866 71.2312" stroke="#DB7E98" stroke-width="6.21971" stroke-linecap="round"/>
</g>
<mask id="mask9_812_310" style="mask-type:luminance" maskUnits="userSpaceOnUse" x="15" y="43" width="73" height="69">
<path d="M18.2339 43.3L87.4308 45.5855L85.0937 111.883L15.8968 109.597L18.2339 43.3Z" fill="white"/>
</mask>
<g mask="url(#mask9_812_310)">
<path d="M50.9593 61.7262C46.7613 61.1065 46.5774 64.7424 46.5774 64.7424C46.5774 64.7424 56.5866 69.9445 56.6929 66.9487C56.7993 63.9529 55.1574 62.3459 50.9593 61.7262Z" fill="#D9D9D9"/>
<path d="M40.878 63.5316C40.878 63.5316 38.7646 62.8734 38.5747 64.3662C38.4228 65.5587 40.0234 79.886 40.4111 84.3959C40.7989 88.9057 40.6363 90.3994 41.7061 91.1305C42.7759 91.8616 50.9996 93.2555 50.9996 93.2555L63.7199 96.0818C63.7199 96.0818 65.9447 96.6901 65.845 94.8666C65.7454 93.043 64.9201 69.9949 64.9201 69.9949C64.9201 69.9949 65.3111 68.241 62.592 67.67C59.8728 67.099 40.878 63.5316 40.878 63.5316Z" fill="#B83B5E"/>
</g>
<path d="M33.4706 51.4878C20.5046 83.6812 40.4192 87.2982 45.4793 85.8199C49.6422 84.6038 50.8833 81.2416 51.2746 79.1758C51.8804 75.9768 45.3564 73.0855 39.6245 68.8168C34.5979 65.0733 33.4398 53.1988 33.4706 51.4878Z" fill="#A385A6"/>
</g>
</g>
</g>
<path d="M182 26.5C182 20.4249 186.925 15.5 193 15.5H346C352.075 15.5 357 20.4249 357 26.5V78.5C357 84.5751 352.075 89.5 346 89.5H193C186.925 89.5 182 84.5751 182 78.5V26.5Z" stroke="#E5E5E5" stroke-width="2"/>
<path d="M201.663 58.5909V69.5H200.071V58.5909H201.663ZM207.332 69.6651C206.526 69.6651 205.832 69.4929 205.25 69.1484C204.671 68.8004 204.223 68.3121 203.907 67.6836C203.595 67.0515 203.438 66.3111 203.438 65.4624C203.438 64.6243 203.595 63.8857 203.907 63.2464C204.223 62.6072 204.664 62.1083 205.228 61.7496C205.796 61.391 206.46 61.2116 207.22 61.2116C207.682 61.2116 208.13 61.288 208.563 61.4407C208.996 61.5934 209.385 61.8331 209.729 62.1598C210.074 62.4865 210.345 62.9109 210.544 63.4329C210.743 63.9513 210.843 64.5817 210.843 65.3239V65.8885H204.339V64.6953H209.282C209.282 64.2763 209.197 63.9052 209.026 63.582C208.856 63.2553 208.616 62.9979 208.307 62.8097C208.002 62.6214 207.643 62.5273 207.231 62.5273C206.784 62.5273 206.393 62.6374 206.059 62.8576C205.729 63.0742 205.473 63.3583 205.292 63.7099C205.115 64.0579 205.026 64.4361 205.026 64.8445V65.7766C205.026 66.3235 205.122 66.7887 205.313 67.1722C205.509 67.5558 205.78 67.8487 206.128 68.0511C206.476 68.25 206.883 68.3494 207.348 68.3494C207.65 68.3494 207.925 68.3068 208.174 68.2216C208.422 68.1328 208.637 68.0014 208.818 67.8274C209 67.6534 209.138 67.4386 209.234 67.1829L210.741 67.4545C210.621 67.8984 210.404 68.2873 210.092 68.6211C209.783 68.9513 209.394 69.2088 208.925 69.3935C208.46 69.5746 207.929 69.6651 207.332 69.6651ZM214.991 69.6811C214.472 69.6811 214.004 69.5852 213.585 69.3935C213.165 69.1982 212.833 68.9158 212.588 68.5465C212.347 68.1772 212.226 67.7244 212.226 67.1882C212.226 66.7266 212.315 66.3466 212.493 66.0483C212.67 65.75 212.91 65.5138 213.212 65.3398C213.513 65.1658 213.851 65.0344 214.224 64.9457C214.597 64.8569 214.977 64.7894 215.364 64.7433C215.854 64.6864 216.251 64.6403 216.557 64.6048C216.862 64.5657 217.084 64.5036 217.223 64.4183C217.361 64.3331 217.43 64.1946 217.43 64.0028V63.9656C217.43 63.5004 217.299 63.1399 217.036 62.8842C216.777 62.6286 216.39 62.5007 215.875 62.5007C215.339 62.5007 214.916 62.6197 214.607 62.8576C214.302 63.092 214.091 63.353 213.973 63.6406L212.477 63.2997C212.654 62.8026 212.913 62.4013 213.254 62.0959C213.599 61.7869 213.995 61.5632 214.442 61.4247C214.89 61.2827 215.36 61.2116 215.854 61.2116C216.18 61.2116 216.527 61.2507 216.892 61.3288C217.262 61.4034 217.606 61.5419 217.926 61.7443C218.249 61.9467 218.513 62.2362 218.719 62.6126C218.925 62.9854 219.028 63.4702 219.028 64.0668V69.5H217.473V68.3814H217.409C217.306 68.5874 217.152 68.7898 216.946 68.9886C216.74 69.1875 216.475 69.3526 216.152 69.484C215.829 69.6154 215.442 69.6811 214.991 69.6811ZM215.337 68.4027C215.777 68.4027 216.154 68.3157 216.466 68.1417C216.782 67.9677 217.022 67.7404 217.185 67.4599C217.352 67.1758 217.436 66.8722 217.436 66.549V65.4943C217.379 65.5511 217.269 65.6044 217.105 65.6541C216.946 65.7003 216.763 65.7411 216.557 65.7766C216.351 65.8086 216.15 65.8388 215.955 65.8672C215.76 65.892 215.596 65.9134 215.465 65.9311C215.156 65.9702 214.874 66.0359 214.618 66.1282C214.366 66.2205 214.163 66.3537 214.011 66.5277C213.862 66.6982 213.787 66.9254 213.787 67.2095C213.787 67.6037 213.933 67.902 214.224 68.1044C214.515 68.3033 214.886 68.4027 215.337 68.4027ZM221.15 69.5V61.3182H222.689V62.6179H222.774C222.924 62.1776 223.186 61.8313 223.563 61.5792C223.943 61.3235 224.372 61.1957 224.852 61.1957C224.951 61.1957 225.068 61.1992 225.203 61.2063C225.342 61.2134 225.45 61.2223 225.528 61.233V62.7564C225.464 62.7386 225.351 62.7191 225.187 62.6978C225.024 62.6729 224.861 62.6605 224.697 62.6605C224.321 62.6605 223.985 62.7404 223.691 62.9002C223.399 63.0565 223.169 63.2749 222.998 63.5554C222.828 63.8324 222.742 64.1484 222.742 64.5036V69.5H221.15ZM228.499 64.642V69.5H226.907V61.3182H228.435V62.6499H228.537C228.725 62.2166 229.02 61.8686 229.421 61.6058C229.826 61.343 230.335 61.2116 230.95 61.2116C231.507 61.2116 231.995 61.3288 232.414 61.5632C232.833 61.794 233.158 62.1385 233.389 62.5966C233.62 63.0547 233.735 63.6211 233.735 64.2958V69.5H232.143V64.4876C232.143 63.8945 231.988 63.4311 231.679 63.0973C231.37 62.7599 230.946 62.5913 230.406 62.5913C230.037 62.5913 229.708 62.6712 229.421 62.831C229.137 62.9908 228.911 63.2251 228.744 63.5341C228.581 63.8395 228.499 64.2088 228.499 64.642ZM235.871 69.5V61.3182H237.464V69.5H235.871ZM236.676 60.0558C236.399 60.0558 236.161 59.9634 235.962 59.7788C235.767 59.5906 235.669 59.3668 235.669 59.1076C235.669 58.8448 235.767 58.6211 235.962 58.4364C236.161 58.2482 236.399 58.1541 236.676 58.1541C236.953 58.1541 237.189 58.2482 237.384 58.4364C237.583 58.6211 237.683 58.8448 237.683 59.1076C237.683 59.3668 237.583 59.5906 237.384 59.7788C237.189 59.9634 236.953 60.0558 236.676 60.0558ZM241.199 64.642V69.5H239.607V61.3182H241.136V62.6499H241.237C241.425 62.2166 241.72 61.8686 242.121 61.6058C242.526 61.343 243.035 61.2116 243.65 61.2116C244.207 61.2116 244.696 61.3288 245.115 61.5632C245.534 61.794 245.859 62.1385 246.089 62.5966C246.32 63.0547 246.436 63.6211 246.436 64.2958V69.5H244.843V64.4876C244.843 63.8945 244.688 63.4311 244.38 63.0973C244.071 62.7599 243.646 62.5913 243.106 62.5913C242.737 62.5913 242.409 62.6712 242.121 62.831C241.837 62.9908 241.611 63.2251 241.445 63.5341C241.281 63.8395 241.199 64.2088 241.199 64.642ZM252.002 72.7386C251.352 72.7386 250.793 72.6534 250.324 72.483C249.859 72.3125 249.479 72.087 249.184 71.8065C248.889 71.5259 248.669 71.2188 248.524 70.8849L249.893 70.3203C249.989 70.4766 250.116 70.6417 250.276 70.8157C250.44 70.9933 250.66 71.1442 250.937 71.2685C251.217 71.3928 251.578 71.4549 252.018 71.4549C252.622 71.4549 253.121 71.3075 253.515 71.0128C253.909 70.7216 254.106 70.2564 254.106 69.6172V68.0085H254.005C253.909 68.1825 253.771 68.3761 253.589 68.5891C253.412 68.8022 253.167 68.9869 252.854 69.1431C252.542 69.2994 252.135 69.3775 251.634 69.3775C250.988 69.3775 250.406 69.2266 249.887 68.9247C249.372 68.6193 248.964 68.1701 248.662 67.5771C248.364 66.9805 248.215 66.2472 248.215 65.3771C248.215 64.5071 248.362 63.7614 248.657 63.1399C248.955 62.5185 249.364 62.0426 249.882 61.7124C250.4 61.3786 250.988 61.2116 251.645 61.2116C252.153 61.2116 252.563 61.2969 252.876 61.4673C253.188 61.6342 253.431 61.8295 253.605 62.0533C253.783 62.277 253.92 62.4741 254.016 62.6445H254.133V61.3182H255.693V69.6811C255.693 70.3842 255.53 70.9613 255.203 71.4123C254.877 71.8633 254.435 72.1971 253.877 72.4137C253.323 72.6303 252.698 72.7386 252.002 72.7386ZM251.986 68.0565C252.444 68.0565 252.831 67.9499 253.147 67.7369C253.467 67.5202 253.708 67.2113 253.872 66.81C254.039 66.4052 254.122 65.9205 254.122 65.3558C254.122 64.8054 254.04 64.3207 253.877 63.9016C253.714 63.4826 253.474 63.1559 253.158 62.9215C252.842 62.6836 252.451 62.5646 251.986 62.5646C251.507 62.5646 251.107 62.6889 250.788 62.9375C250.468 63.1825 250.226 63.5163 250.063 63.9389C249.903 64.3615 249.823 64.8338 249.823 65.3558C249.823 65.892 249.905 66.3626 250.068 66.7674C250.232 67.1722 250.473 67.4883 250.793 67.7156C251.116 67.9428 251.514 68.0565 251.986 68.0565Z" fill="white"/>
<path d="M268.939 72.7386C268.289 72.7386 267.729 72.6534 267.261 72.483C266.795 72.3125 266.415 72.087 266.121 71.8065C265.826 71.5259 265.606 71.2188 265.46 70.8849L266.829 70.3203C266.925 70.4766 267.053 70.6417 267.213 70.8157C267.376 70.9933 267.596 71.1442 267.873 71.2685C268.154 71.3928 268.514 71.4549 268.955 71.4549C269.558 71.4549 270.057 71.3075 270.451 71.0128C270.846 70.7216 271.043 70.2564 271.043 69.6172V68.0085H270.941C270.846 68.1825 270.707 68.3761 270.526 68.5891C270.348 68.8022 270.103 68.9869 269.791 69.1431C269.478 69.2994 269.072 69.3775 268.571 69.3775C267.925 69.3775 267.342 69.2266 266.824 68.9247C266.309 68.6193 265.901 68.1701 265.599 67.5771C265.3 66.9805 265.151 66.2472 265.151 65.3771C265.151 64.5071 265.299 63.7614 265.593 63.1399C265.892 62.5185 266.3 62.0426 266.819 61.7124C267.337 61.3786 267.925 61.2116 268.582 61.2116C269.089 61.2116 269.5 61.2969 269.812 61.4673C270.125 61.6342 270.368 61.8295 270.542 62.0533C270.719 62.277 270.856 62.4741 270.952 62.6445H271.069V61.3182H272.63V69.6811C272.63 70.3842 272.467 70.9613 272.14 71.4123C271.813 71.8633 271.371 72.1971 270.814 72.4137C270.26 72.6303 269.635 72.7386 268.939 72.7386ZM268.923 68.0565C269.381 68.0565 269.768 67.9499 270.084 67.7369C270.403 67.5202 270.645 67.2113 270.808 66.81C270.975 66.4052 271.059 65.9205 271.059 65.3558C271.059 64.8054 270.977 64.3207 270.814 63.9016C270.65 63.4826 270.411 63.1559 270.094 62.9215C269.778 62.6836 269.388 62.5646 268.923 62.5646C268.443 62.5646 268.044 62.6889 267.724 62.9375C267.404 63.1825 267.163 63.5163 267 63.9389C266.84 64.3615 266.76 64.8338 266.76 65.3558C266.76 65.892 266.842 66.3626 267.005 66.7674C267.168 67.1722 267.41 67.4883 267.729 67.7156C268.053 67.9428 268.45 68.0565 268.923 68.0565ZM278.212 69.6651C277.445 69.6651 276.776 69.4893 276.204 69.1378C275.632 68.7862 275.189 68.2944 274.873 67.6623C274.556 67.0302 274.398 66.2915 274.398 65.4464C274.398 64.5977 274.556 63.8555 274.873 63.2198C275.189 62.5842 275.632 62.0906 276.204 61.739C276.776 61.3874 277.445 61.2116 278.212 61.2116C278.979 61.2116 279.649 61.3874 280.221 61.739C280.792 62.0906 281.236 62.5842 281.552 63.2198C281.868 63.8555 282.026 64.5977 282.026 65.4464C282.026 66.2915 281.868 67.0302 281.552 67.6623C281.236 68.2944 280.792 68.7862 280.221 69.1378C279.649 69.4893 278.979 69.6651 278.212 69.6651ZM278.218 68.3281C278.715 68.3281 279.127 68.1967 279.453 67.9339C279.78 67.6712 280.022 67.3214 280.178 66.8846C280.338 66.4478 280.418 65.9666 280.418 65.4411C280.418 64.919 280.338 64.4396 280.178 64.0028C280.022 63.5625 279.78 63.2092 279.453 62.9428C279.127 62.6765 278.715 62.5433 278.218 62.5433C277.717 62.5433 277.301 62.6765 276.971 62.9428C276.645 63.2092 276.401 63.5625 276.241 64.0028C276.085 64.4396 276.007 64.919 276.007 65.4411C276.007 65.9666 276.085 66.4478 276.241 66.8846C276.401 67.3214 276.645 67.6712 276.971 67.9339C277.301 68.1967 277.717 68.3281 278.218 68.3281ZM286.185 69.6811C285.667 69.6811 285.198 69.5852 284.779 69.3935C284.36 69.1982 284.028 68.9158 283.783 68.5465C283.541 68.1772 283.421 67.7244 283.421 67.1882C283.421 66.7266 283.509 66.3466 283.687 66.0483C283.864 65.75 284.104 65.5138 284.406 65.3398C284.708 65.1658 285.045 65.0344 285.418 64.9457C285.791 64.8569 286.171 64.7894 286.558 64.7433C287.048 64.6864 287.446 64.6403 287.751 64.6048C288.057 64.5657 288.278 64.5036 288.417 64.4183C288.555 64.3331 288.625 64.1946 288.625 64.0028V63.9656C288.625 63.5004 288.493 63.1399 288.231 62.8842C287.971 62.6286 287.584 62.5007 287.069 62.5007C286.533 62.5007 286.111 62.6197 285.802 62.8576C285.496 63.092 285.285 63.353 285.168 63.6406L283.671 63.2997C283.848 62.8026 284.108 62.4013 284.449 62.0959C284.793 61.7869 285.189 61.5632 285.636 61.4247C286.084 61.2827 286.554 61.2116 287.048 61.2116C287.375 61.2116 287.721 61.2507 288.087 61.3288C288.456 61.4034 288.801 61.5419 289.12 61.7443C289.443 61.9467 289.708 62.2362 289.914 62.6126C290.12 62.9854 290.223 63.4702 290.223 64.0668V69.5H288.667V68.3814H288.603C288.5 68.5874 288.346 68.7898 288.14 68.9886C287.934 69.1875 287.669 69.3526 287.346 69.484C287.023 69.6154 286.636 69.6811 286.185 69.6811ZM286.531 68.4027C286.972 68.4027 287.348 68.3157 287.661 68.1417C287.977 67.9677 288.216 67.7404 288.38 67.4599C288.547 67.1758 288.63 66.8722 288.63 66.549V65.4943C288.573 65.5511 288.463 65.6044 288.3 65.6541C288.14 65.7003 287.957 65.7411 287.751 65.7766C287.545 65.8086 287.345 65.8388 287.149 65.8672C286.954 65.892 286.791 65.9134 286.659 65.9311C286.35 65.9702 286.068 66.0359 285.812 66.1282C285.56 66.2205 285.358 66.3537 285.205 66.5277C285.056 66.6982 284.981 66.9254 284.981 67.2095C284.981 67.6037 285.127 67.902 285.418 68.1044C285.709 68.3033 286.08 68.4027 286.531 68.4027ZM293.937 58.5909V69.5H292.344V58.5909H293.937ZM297.821 66.3626V66.2614C297.828 65.6009 297.894 65.0753 298.018 64.6847C298.146 64.294 298.327 63.978 298.562 63.7365C298.796 63.495 299.078 63.2749 299.409 63.076C299.622 62.9411 299.813 62.7901 299.984 62.6232C300.154 62.4563 300.289 62.2646 300.389 62.0479C300.488 61.8313 300.538 61.5916 300.538 61.3288C300.538 61.0128 300.463 60.7393 300.314 60.5085C300.165 60.2777 299.966 60.1001 299.718 59.9759C299.473 59.848 299.199 59.7841 298.897 59.7841C298.624 59.7841 298.363 59.8409 298.114 59.9545C297.866 60.0682 297.66 60.2457 297.496 60.4872C297.333 60.7251 297.239 61.0323 297.214 61.4087H295.595C295.62 60.7695 295.781 60.2298 296.079 59.7894C296.378 59.3455 296.772 59.0099 297.262 58.7827C297.756 58.5554 298.301 58.4418 298.897 58.4418C299.551 58.4418 300.122 58.5643 300.612 58.8093C301.103 59.0508 301.483 59.3899 301.752 59.8267C302.026 60.2599 302.163 60.766 302.163 61.3448C302.163 61.7425 302.1 62.1012 301.976 62.4208C301.852 62.7369 301.674 63.0192 301.443 63.2678C301.216 63.5163 300.943 63.7365 300.623 63.9283C300.321 64.1165 300.076 64.3118 299.888 64.5142C299.703 64.7166 299.568 64.9563 299.483 65.2333C299.398 65.5103 299.352 65.853 299.345 66.2614V66.3626H297.821ZM298.626 69.6012C298.334 69.6012 298.084 69.4982 297.875 69.2923C297.665 69.0827 297.56 68.8306 297.56 68.5359C297.56 68.2447 297.665 67.9961 297.875 67.7901C298.084 67.5806 298.334 67.4759 298.626 67.4759C298.913 67.4759 299.162 67.5806 299.371 67.7901C299.584 67.9961 299.691 68.2447 299.691 68.5359C299.691 68.7312 299.641 68.9105 299.542 69.0739C299.446 69.2337 299.318 69.3615 299.158 69.4574C298.998 69.5533 298.821 69.6012 298.626 69.6012Z" fill="white"/>
<path d="M202.335 45.5L199.309 34.5909H201.04L203.165 43.0391H203.267L205.477 34.5909H207.192L209.403 43.0444H209.504L211.624 34.5909H213.361L210.33 45.5H208.673L206.377 37.3288H206.292L203.996 45.5H202.335ZM216.326 40.642V45.5H214.734V34.5909H216.305V38.6499H216.406C216.598 38.2095 216.891 37.8597 217.285 37.6005C217.679 37.3413 218.194 37.2116 218.83 37.2116C219.391 37.2116 219.881 37.3271 220.3 37.5579C220.723 37.7887 221.049 38.1332 221.28 38.5913C221.515 39.0458 221.632 39.614 221.632 40.2958V45.5H220.039V40.4876C220.039 39.8874 219.885 39.4222 219.576 39.092C219.267 38.7582 218.837 38.5913 218.287 38.5913C217.91 38.5913 217.573 38.6712 217.275 38.831C216.98 38.9908 216.747 39.2251 216.577 39.5341C216.41 39.8395 216.326 40.2088 216.326 40.642ZM226.138 45.6811C225.62 45.6811 225.151 45.5852 224.732 45.3935C224.313 45.1982 223.981 44.9158 223.736 44.5465C223.494 44.1772 223.374 43.7244 223.374 43.1882C223.374 42.7266 223.462 42.3466 223.64 42.0483C223.818 41.75 224.057 41.5138 224.359 41.3398C224.661 41.1658 224.998 41.0344 225.371 40.9457C225.744 40.8569 226.124 40.7894 226.511 40.7433C227.001 40.6864 227.399 40.6403 227.704 40.6048C228.01 40.5657 228.232 40.5036 228.37 40.4183C228.509 40.3331 228.578 40.1946 228.578 40.0028V39.9656C228.578 39.5004 228.446 39.1399 228.184 38.8842C227.924 38.6286 227.537 38.5007 227.022 38.5007C226.486 38.5007 226.064 38.6197 225.755 38.8576C225.449 39.092 225.238 39.353 225.121 39.6406L223.624 39.2997C223.802 38.8026 224.061 38.4013 224.402 38.0959C224.746 37.7869 225.142 37.5632 225.59 37.4247C226.037 37.2827 226.508 37.2116 227.001 37.2116C227.328 37.2116 227.674 37.2507 228.04 37.3288C228.409 37.4034 228.754 37.5419 229.073 37.7443C229.396 37.9467 229.661 38.2362 229.867 38.6126C230.073 38.9854 230.176 39.4702 230.176 40.0668V45.5H228.62V44.3814H228.557C228.454 44.5874 228.299 44.7898 228.093 44.9886C227.887 45.1875 227.623 45.3526 227.299 45.484C226.976 45.6154 226.589 45.6811 226.138 45.6811ZM226.484 44.4027C226.925 44.4027 227.301 44.3157 227.614 44.1417C227.93 43.9677 228.169 43.7404 228.333 43.4599C228.5 43.1758 228.583 42.8722 228.583 42.549V41.4943C228.526 41.5511 228.416 41.6044 228.253 41.6541C228.093 41.7003 227.91 41.7411 227.704 41.7766C227.498 41.8086 227.298 41.8388 227.102 41.8672C226.907 41.892 226.744 41.9134 226.612 41.9311C226.303 41.9702 226.021 42.0359 225.765 42.1282C225.513 42.2205 225.311 42.3537 225.158 42.5277C225.009 42.6982 224.934 42.9254 224.934 43.2095C224.934 43.6037 225.08 43.902 225.371 44.1044C225.662 44.3033 226.033 44.4027 226.484 44.4027ZM236.116 37.3182V38.5966H231.647V37.3182H236.116ZM232.846 35.358H234.439V43.0977C234.439 43.4066 234.485 43.6392 234.577 43.7955C234.669 43.9482 234.788 44.0529 234.934 44.1097C235.083 44.163 235.245 44.1896 235.419 44.1896C235.547 44.1896 235.658 44.1808 235.754 44.163C235.85 44.1452 235.925 44.131 235.978 44.1204L236.266 45.4361C236.173 45.4716 236.042 45.5071 235.871 45.5426C235.701 45.5817 235.488 45.603 235.232 45.6065C234.813 45.6136 234.423 45.5391 234.06 45.3828C233.698 45.2266 233.405 44.9851 233.181 44.6584C232.958 44.3317 232.846 43.9215 232.846 43.4279V35.358ZM239.657 34.5909V35.6136C239.657 35.9155 239.601 36.2333 239.487 36.5671C239.377 36.8974 239.221 37.2152 239.018 37.5206C238.816 37.826 238.578 38.0888 238.304 38.3089L237.516 37.7443C237.726 37.4389 237.907 37.114 238.059 36.7695C238.216 36.4251 238.294 36.0451 238.294 35.6296V34.5909H239.657ZM246.294 39.3157L244.851 39.5714C244.791 39.3867 244.695 39.2109 244.563 39.044C244.435 38.8771 244.261 38.7404 244.041 38.6339C243.821 38.5273 243.546 38.4741 243.216 38.4741C242.765 38.4741 242.388 38.5753 242.086 38.7777C241.785 38.9766 241.634 39.234 241.634 39.5501C241.634 39.8235 241.735 40.0437 241.937 40.2106C242.14 40.3775 242.466 40.5142 242.917 40.6207L244.217 40.919C244.97 41.093 245.531 41.3612 245.9 41.7234C246.27 42.0856 246.454 42.5561 246.454 43.1349C246.454 43.625 246.312 44.0618 246.028 44.4453C245.748 44.8253 245.355 45.1236 244.851 45.3402C244.35 45.5568 243.77 45.6651 243.109 45.6651C242.193 45.6651 241.445 45.4698 240.867 45.0792C240.288 44.685 239.933 44.1257 239.801 43.4013L241.341 43.1669C241.437 43.5682 241.634 43.8718 241.932 44.0778C242.23 44.2802 242.619 44.3814 243.098 44.3814C243.62 44.3814 244.038 44.2731 244.35 44.0565C244.663 43.8363 244.819 43.5682 244.819 43.2521C244.819 42.9964 244.723 42.7816 244.531 42.6076C244.343 42.4336 244.054 42.3022 243.663 42.2134L242.278 41.9098C241.515 41.7358 240.95 41.4588 240.584 41.0788C240.222 40.6989 240.041 40.2177 240.041 39.6353C240.041 39.1523 240.176 38.7298 240.446 38.3675C240.716 38.0053 241.089 37.723 241.564 37.5206C242.04 37.3146 242.585 37.2116 243.2 37.2116C244.084 37.2116 244.78 37.4034 245.288 37.7869C245.796 38.1669 246.131 38.6765 246.294 39.3157Z" fill="white"/>
<path d="M254.749 48.5682C254.511 48.5682 254.295 48.5487 254.099 48.5096C253.904 48.4741 253.759 48.435 253.663 48.3924L254.046 47.0874C254.337 47.1655 254.597 47.1992 254.824 47.1886C255.051 47.1779 255.252 47.0927 255.426 46.9329C255.603 46.7731 255.76 46.5121 255.895 46.1499L256.092 45.6065L253.098 37.3182H254.803L256.875 43.6676H256.96L259.032 37.3182H260.742L257.37 46.592C257.214 47.0181 257.015 47.3786 256.773 47.6733C256.532 47.9716 256.244 48.1953 255.911 48.3445C255.577 48.4936 255.19 48.5682 254.749 48.5682ZM265.407 45.6651C264.64 45.6651 263.97 45.4893 263.399 45.1378C262.827 44.7862 262.383 44.2944 262.067 43.6623C261.751 43.0302 261.593 42.2915 261.593 41.4464C261.593 40.5977 261.751 39.8555 262.067 39.2198C262.383 38.5842 262.827 38.0906 263.399 37.739C263.97 37.3874 264.64 37.2116 265.407 37.2116C266.174 37.2116 266.843 37.3874 267.415 37.739C267.987 38.0906 268.43 38.5842 268.747 39.2198C269.063 39.8555 269.221 40.5977 269.221 41.4464C269.221 42.2915 269.063 43.0302 268.747 43.6623C268.43 44.2944 267.987 44.7862 267.415 45.1378C266.843 45.4893 266.174 45.6651 265.407 45.6651ZM265.412 44.3281C265.909 44.3281 266.321 44.1967 266.648 43.9339C266.975 43.6712 267.216 43.3214 267.372 42.8846C267.532 42.4478 267.612 41.9666 267.612 41.4411C267.612 40.919 267.532 40.4396 267.372 40.0028C267.216 39.5625 266.975 39.2092 266.648 38.9428C266.321 38.6765 265.909 38.5433 265.412 38.5433C264.911 38.5433 264.496 38.6765 264.166 38.9428C263.839 39.2092 263.596 39.5625 263.436 40.0028C263.28 40.4396 263.201 40.919 263.201 41.4411C263.201 41.9666 263.28 42.4478 263.436 42.8846C263.596 43.3214 263.839 43.6712 264.166 43.9339C264.496 44.1967 264.911 44.3281 265.412 44.3281ZM276.181 42.1069V37.3182H277.779V45.5H276.213V44.0831H276.128C275.94 44.5199 275.638 44.8839 275.222 45.1751C274.811 45.4627 274.297 45.6065 273.683 45.6065C273.157 45.6065 272.692 45.4911 272.287 45.2603C271.886 45.0259 271.57 44.6797 271.339 44.2216C271.112 43.7635 270.998 43.1971 270.998 42.5224V37.3182H272.591V42.3306C272.591 42.8881 272.746 43.332 273.055 43.6623C273.363 43.9925 273.765 44.1577 274.258 44.1577C274.557 44.1577 274.853 44.0831 275.148 43.9339C275.446 43.7848 275.693 43.5593 275.888 43.2575C276.087 42.9556 276.185 42.5721 276.181 42.1069ZM279.919 45.5V37.3182H281.459V38.6179H281.544C281.693 38.1776 281.956 37.8313 282.332 37.5792C282.712 37.3235 283.142 37.1957 283.621 37.1957C283.721 37.1957 283.838 37.1992 283.973 37.2063C284.111 37.2134 284.22 37.2223 284.298 37.233V38.7564C284.234 38.7386 284.12 38.7191 283.957 38.6978C283.794 38.6729 283.63 38.6605 283.467 38.6605C283.09 38.6605 282.755 38.7404 282.46 38.9002C282.169 39.0565 281.938 39.2749 281.768 39.5554C281.597 39.8324 281.512 40.1484 281.512 40.5036V45.5H279.919Z" fill="white"/>
<path d="M293.805 45.6598C293.145 45.6598 292.555 45.4911 292.037 45.1538C291.522 44.8129 291.117 44.3281 290.822 43.6996C290.531 43.0675 290.386 42.3093 290.386 41.4251C290.386 40.5408 290.533 39.7844 290.828 39.1559C291.126 38.5273 291.534 38.0462 292.053 37.7124C292.571 37.3786 293.159 37.2116 293.816 37.2116C294.324 37.2116 294.732 37.2969 295.041 37.4673C295.354 37.6342 295.595 37.8295 295.766 38.0533C295.94 38.277 296.075 38.4741 296.17 38.6445H296.266V34.5909H297.859V45.5H296.304V44.2269H296.17C296.075 44.4009 295.936 44.5998 295.755 44.8235C295.577 45.0472 295.332 45.2425 295.02 45.4094C294.707 45.5763 294.303 45.6598 293.805 45.6598ZM294.157 44.3015C294.615 44.3015 295.002 44.1808 295.318 43.9393C295.638 43.6942 295.879 43.3551 296.043 42.9219C296.21 42.4886 296.293 41.9844 296.293 41.4091C296.293 40.8409 296.211 40.3437 296.048 39.9176C295.885 39.4915 295.645 39.1594 295.329 38.9215C295.013 38.6836 294.622 38.5646 294.157 38.5646C293.678 38.5646 293.278 38.6889 292.958 38.9375C292.639 39.1861 292.397 39.5252 292.234 39.9549C292.074 40.3846 291.994 40.8693 291.994 41.4091C291.994 41.956 292.076 42.4478 292.239 42.8846C292.403 43.3214 292.644 43.6676 292.964 43.9233C293.287 44.1754 293.685 44.3015 294.157 44.3015ZM302.513 45.6811C301.995 45.6811 301.526 45.5852 301.107 45.3935C300.688 45.1982 300.356 44.9158 300.111 44.5465C299.869 44.1772 299.749 43.7244 299.749 43.1882C299.749 42.7266 299.837 42.3466 300.015 42.0483C300.193 41.75 300.432 41.5138 300.734 41.3398C301.036 41.1658 301.373 41.0344 301.746 40.9457C302.119 40.8569 302.499 40.7894 302.886 40.7433C303.376 40.6864 303.774 40.6403 304.079 40.6048C304.385 40.5657 304.607 40.5036 304.745 40.4183C304.884 40.3331 304.953 40.1946 304.953 40.0028V39.9656C304.953 39.5004 304.821 39.1399 304.559 38.8842C304.299 38.6286 303.912 38.5007 303.397 38.5007C302.861 38.5007 302.439 38.6197 302.13 38.8576C301.824 39.092 301.613 39.353 301.496 39.6406L299.999 39.2997C300.177 38.8026 300.436 38.4013 300.777 38.0959C301.121 37.7869 301.517 37.5632 301.965 37.4247C302.412 37.2827 302.883 37.2116 303.376 37.2116C303.703 37.2116 304.049 37.2507 304.415 37.3288C304.784 37.4034 305.129 37.5419 305.448 37.7443C305.771 37.9467 306.036 38.2362 306.242 38.6126C306.448 38.9854 306.551 39.4702 306.551 40.0668V45.5H304.995V44.3814H304.932C304.829 44.5874 304.674 44.7898 304.468 44.9886C304.262 45.1875 303.998 45.3526 303.674 45.484C303.351 45.6154 302.964 45.6811 302.513 45.6811ZM302.859 44.4027C303.3 44.4027 303.676 44.3157 303.989 44.1417C304.305 43.9677 304.544 43.7404 304.708 43.4599C304.875 43.1758 304.958 42.8722 304.958 42.549V41.4943C304.901 41.5511 304.791 41.6044 304.628 41.6541C304.468 41.7003 304.285 41.7411 304.079 41.7766C303.873 41.8086 303.673 41.8388 303.477 41.8672C303.282 41.892 303.119 41.9134 302.987 41.9311C302.678 41.9702 302.396 42.0359 302.14 42.1282C301.888 42.2205 301.686 42.3537 301.533 42.5277C301.384 42.6982 301.309 42.9254 301.309 43.2095C301.309 43.6037 301.455 43.902 301.746 44.1044C302.037 44.3033 302.408 44.4027 302.859 44.4027ZM308.672 45.5V37.3182H310.265V45.5H308.672ZM309.477 36.0558C309.2 36.0558 308.962 35.9634 308.763 35.7788C308.567 35.5906 308.47 35.3668 308.47 35.1076C308.47 34.8448 308.567 34.6211 308.763 34.4364C308.962 34.2482 309.2 34.1541 309.477 34.1541C309.754 34.1541 309.99 34.2482 310.185 34.4364C310.384 34.6211 310.483 34.8448 310.483 35.1076C310.483 35.3668 310.384 35.5906 310.185 35.7788C309.99 35.9634 309.754 36.0558 309.477 36.0558ZM314 34.5909V45.5H312.408V34.5909H314ZM317.15 48.5682C316.912 48.5682 316.695 48.5487 316.5 48.5096C316.305 48.4741 316.159 48.435 316.063 48.3924L316.447 47.0874C316.738 47.1655 316.997 47.1992 317.224 47.1886C317.452 47.1779 317.652 47.0927 317.826 46.9329C318.004 46.7731 318.16 46.5121 318.295 46.1499L318.492 45.6065L315.498 37.3182H317.203L319.275 43.6676H319.36L321.432 37.3182H323.142L319.77 46.592C319.614 47.0181 319.415 47.3786 319.174 47.6733C318.932 47.9716 318.645 48.1953 318.311 48.3445C317.977 48.4936 317.59 48.5682 317.15 48.5682Z" fill="white"/>
<g clip-path="url(#clip1_812_310)">
<mask id="mask10_812_310" style="mask-type:alpha" maskUnits="userSpaceOnUse" x="163" y="37" width="20" height="31">
<path d="M163 37H183V68H163V37Z" fill="#C4C4C4"/>
</mask>
<g mask="url(#mask10_812_310)">
<path d="M188.806 45.6857C190.096 44.5392 192.135 45.4548 192.135 47.1805V64.5C192.135 65.6046 191.239 66.5 190.135 66.5H170.65C168.811 66.5 167.947 64.227 169.322 63.0052L188.806 45.6857Z" fill="#7F6182" stroke="#E5E5E5" stroke-width="2"/>
</g>
</g>
<defs>
<clipPath id="clip0_812_310">
<rect width="140" height="105" fill="white"/>
</clipPath>
<clipPath id="clip1_812_310">
<rect width="20" height="31" fill="white" transform="translate(163 37)"/>
</clipPath>
</defs>
</svg>
