<svg width="42" height="35" viewBox="0 0 42 35" fill="none" xmlns="http://www.w3.org/2000/svg">
<g clip-path="url(#clip0_732_23311)">
<mask id="mask0_732_23311" style="mask-type:luminance" maskUnits="userSpaceOnUse" x="6" y="3" width="30" height="29">
<path d="M6 3.5H36V31.5H6V3.5Z" fill="white"/>
</mask>
<g mask="url(#mask0_732_23311)">
<path d="M23.2479 4.91157C22.3402 3.02948 19.6598 3.02948 18.7521 4.91157L16.1461 10.3152C15.775 11.0847 15.0361 11.6109 14.1875 11.7099L8.2094 12.4076C6.0731 12.6569 5.2316 15.3114 6.8342 16.7459L11.1155 20.5785C11.776 21.1697 12.0733 22.067 11.8965 22.9357L10.7532 28.553C10.3316 30.624 12.5143 32.2487 14.3772 31.2506L19.8214 28.3339C20.5576 27.9395 21.4424 27.9395 22.1786 28.3339L27.6228 31.2506C29.4857 32.2487 31.6684 30.624 31.2468 28.553L30.1035 22.9357C29.9267 22.067 30.224 21.1697 30.8845 20.5785L35.1658 16.7459C36.7684 15.3114 35.9269 12.6569 33.7906 12.4076L27.8125 11.7099C26.9639 11.6109 26.225 11.0847 25.8539 10.3152L23.2479 4.91157Z" fill="#AFAFAF"/>
</g>
</g>
<defs>
<clipPath id="clip0_732_23311">
<rect width="42" height="34" fill="white" transform="matrix(-1 0 0 1 42 0.5)"/>
</clipPath>
</defs>
</svg>
