<svg width="42" height="35" viewBox="0 0 42 35" fill="none" xmlns="http://www.w3.org/2000/svg">
<g clip-path="url(#clip0_732_21462)">
<mask id="mask0_732_21462" style="mask-type:luminance" maskUnits="userSpaceOnUse" x="6" y="3" width="30" height="29">
<path d="M36 3.5H6V31.5H36V3.5Z" fill="white"/>
</mask>
<g mask="url(#mask0_732_21462)">
<path d="M18.7521 4.91157C19.6598 3.02948 22.3402 3.02948 23.2479 4.91157L25.8539 10.3152C26.225 11.0847 26.9639 11.6109 27.8125 11.7099L33.7906 12.4076C35.9269 12.6569 36.7684 15.3114 35.1658 16.7459L30.8845 20.5785C30.224 21.1697 29.9267 22.067 30.1035 22.9357L31.2468 28.553C31.6684 30.624 29.4857 32.2487 27.6228 31.2506L22.1786 28.3339C21.4424 27.9395 20.5576 27.9395 19.8214 28.3339L14.3772 31.2506C12.5143 32.2487 10.3316 30.624 10.7532 28.553L11.8965 22.9357C12.0733 22.067 11.776 21.1697 11.1155 20.5785L6.83415 16.7459C5.23162 15.3114 6.07307 12.6569 8.20939 12.4076L14.1875 11.7099C15.0361 11.6109 15.775 11.0847 16.1461 10.3152L18.7521 4.91157Z" fill="white"/>
</g>
</g>
<defs>
<clipPath id="clip0_732_21462">
<rect width="42" height="34" fill="white" transform="translate(0 0.5)"/>
</clipPath>
</defs>
</svg>
