<svg width="64" height="64" viewBox="0 0 64 64" fill="none" xmlns="http://www.w3.org/2000/svg">
<path fill-rule="evenodd" clip-rule="evenodd" d="M25.5919 3.77173H38.0627C38.7915 3.77173 39.3823 4.36255 39.3823 5.09138V48.5804C39.3823 49.3092 38.7915 49.9 38.0627 49.9H25.5919C24.863 49.9 24.2722 49.3092 24.2722 48.5804V5.09138C24.2722 4.36255 24.863 3.77173 25.5919 3.77173Z" fill="#FF9600"/>
<path d="M40.6598 11.0183H22.8568C18.9698 11.0183 15.8187 14.1694 15.8187 18.0564V35.3974C15.8187 39.2845 18.9698 42.4355 22.8568 42.4355H40.6598C44.5469 42.4355 47.698 39.2845 47.698 35.3974V18.0564C47.698 14.1694 44.5469 11.0183 40.6598 11.0183Z" fill="#FFF4D7" stroke="#FFBC00" stroke-width="3.07918"/>
<path d="M52.0448 21.8855H50.3543C49.6874 21.8855 49.1467 22.4261 49.1467 23.093V30.3383C49.1467 31.0052 49.6874 31.5459 50.3543 31.5459H52.0448C52.7118 31.5459 53.2524 31.0052 53.2524 30.3383V23.093C53.2524 22.4261 52.7118 21.8855 52.0448 21.8855Z" fill="#FFA600"/>
<path d="M32.5947 18.8656C32.5947 17.8792 31.7951 17.0796 30.8087 17.0796C29.8223 17.0796 29.0226 17.8792 29.0226 18.8656V29.5819C29.0226 30.5683 29.8223 31.368 30.8087 31.368C31.7951 31.368 32.5947 30.5683 32.5947 29.5819V18.8656Z" fill="#CD7900"/>
<path d="M34.696 34.1634C35.5503 34.6566 36.6426 34.3639 37.1358 33.5097C37.629 32.6554 37.3363 31.5631 36.482 31.0699L32.3561 28.6877C31.5018 28.1945 30.4095 28.4872 29.9163 29.3415C29.4231 30.1957 29.7158 31.2881 30.57 31.7813L34.696 34.1634Z" fill="#CD7900"/>
</svg>
