<svg width="64" height="64" viewBox="0 0 64 64" fill="none" xmlns="http://www.w3.org/2000/svg">
<path d="M51.4076 14.9766L33.9174 8.61073C31.0402 7.56353 27.8589 9.04701 26.8117 11.9242L18.2195 35.531C17.1723 38.4082 18.6558 41.5895 21.5329 42.6367L39.0231 49.0026C41.9003 50.0498 45.0816 48.5663 46.1288 45.6892L54.721 22.0823C55.7682 19.2052 54.2847 16.0238 51.4076 14.9766Z" fill="#1CB0F6" stroke="white" stroke-width="2.36158"/>
<path d="M12.4375 13.8528C12.4375 10.7429 14.9585 8.22192 18.0683 8.22192H34.1455C37.2554 8.22192 39.7764 10.7429 39.7764 13.8528V36.4392C39.7764 39.5491 37.2554 42.0701 34.1456 42.0701H18.0684C14.9585 42.0701 12.4375 39.5491 12.4375 36.4392V13.8528Z" fill="#CE82FF"/>
<mask id="mask0_732_20920" style="mask-type:luminance" maskUnits="userSpaceOnUse" x="9" y="5" width="34" height="41">
<path d="M42.4375 5.22192H9.4375V45.2219H42.4375V5.22192Z" fill="white"/>
<path d="M12.4375 13.8528C12.4375 10.7429 14.9585 8.22192 18.0683 8.22192H34.1455C37.2554 8.22192 39.7764 10.7429 39.7764 13.8528V36.4392C39.7764 39.5491 37.2554 42.0701 34.1456 42.0701H18.0684C14.9585 42.0701 12.4375 39.5491 12.4375 36.4392V13.8528Z" fill="black"/>
</mask>
<g mask="url(#mask0_732_20920)">
<path d="M18.0683 10.5835H34.1455V5.86035H18.0683V10.5835ZM37.4148 13.8528V36.4392H42.138V13.8528H37.4148ZM34.1456 39.7085H18.0684V44.4317H34.1456V39.7085ZM14.7991 36.4392V13.8528H10.0759V36.4392H14.7991ZM18.0684 39.7085C16.2628 39.7085 14.7991 38.2448 14.7991 36.4392H10.0759C10.0759 40.8533 13.6543 44.4317 18.0684 44.4317V39.7085ZM37.4148 36.4392C37.4148 38.2448 35.9511 39.7085 34.1456 39.7085V44.4317C38.5597 44.4317 42.138 40.8533 42.138 36.4392H37.4148ZM34.1455 10.5835C35.9511 10.5835 37.4148 12.0472 37.4148 13.8528H42.138C42.138 9.43868 38.5596 5.86035 34.1455 5.86035V10.5835ZM18.0683 5.86035C13.6543 5.86035 10.0759 9.43868 10.0759 13.8528H14.7991C14.7991 12.0472 16.2628 10.5835 18.0683 10.5835V5.86035Z" fill="white"/>
</g>
<path d="M12.4375 13.8547C12.4375 10.7449 14.9585 8.22388 18.0683 8.22388H34.1455C37.2554 8.22388 39.7764 10.7449 39.7764 13.8547V36.4412C39.7764 39.551 37.2554 42.072 34.1456 42.072H18.0684C14.9585 42.072 12.4375 39.551 12.4375 36.4412V13.8547Z" fill="#84D8FF"/>
<mask id="mask1_732_20920" style="mask-type:alpha" maskUnits="userSpaceOnUse" x="12" y="8" width="28" height="35">
<path d="M12.4375 13.8528C12.4375 10.7429 14.9585 8.22192 18.0683 8.22192H34.1455C37.2554 8.22192 39.7764 10.7429 39.7764 13.8528V36.4392C39.7764 39.5491 37.2554 42.0701 34.1456 42.0701H18.0684C14.9585 42.0701 12.4375 39.5491 12.4375 36.4392V13.8528Z" fill="#CE82FF"/>
</mask>
<g mask="url(#mask1_732_20920)">
<path opacity="0.3" d="M38.3069 9.98098L43.8447 15.7397L14.9512 43.5244L9.41344 37.7657L38.3069 9.98098Z" fill="white"/>
<path opacity="0.3" d="M41.0948 28.4224L45.9907 33.5137L31.5486 47.4016L26.6527 42.3103L41.0948 28.4224Z" fill="white"/>
</g>
<path d="M19.228 31.3353C19.228 32.3269 20.0308 32.9644 20.9043 32.9644C21.6599 32.9644 22.2737 32.5158 22.5334 31.7366L23.1709 29.777H28.9082L29.5692 31.7366C29.829 32.5158 30.4428 32.9644 31.1983 32.9644C32.0719 32.9644 32.8747 32.3269 32.8747 31.3353C32.8747 31.0992 32.8274 30.8631 32.7566 30.6742L28.4832 18.6567C28.0346 17.3817 27.3027 16.6262 26.075 16.6262C24.8472 16.6262 24.1389 17.3817 23.6903 18.6567L19.3461 30.6742C19.2752 30.8631 19.228 31.0992 19.228 31.3353ZM24.1625 26.8258L26.0277 21.2066H26.0986L27.9401 26.8258H24.1625Z" fill="white"/>
</svg>
